<svg width="60" height="16" viewBox="0 0 60 16" fill="none" xmlns="http://www.w3.org/2000/svg">
<path d="M0 8C0 3.58172 3.58172 0 8 0H60V8C60 12.4183 56.4183 16 52 16H0V8Z" fill="url(#paint0_linear_7923_33006)"/>
<path d="M20.1012 10.5V4.68182H22.3285C22.7489 4.68182 23.0984 4.74811 23.3768 4.88068C23.6571 5.01136 23.8664 5.19034 24.0046 5.41761C24.1448 5.64489 24.2148 5.90246 24.2148 6.19034C24.2148 6.42708 24.1694 6.62973 24.0785 6.7983C23.9876 6.96496 23.8654 7.10038 23.712 7.20455C23.5586 7.30871 23.3872 7.38352 23.1978 7.42898V7.4858C23.4042 7.49716 23.6022 7.56061 23.7915 7.67614C23.9828 7.78977 24.1391 7.95076 24.2603 8.15909C24.3815 8.36742 24.4421 8.61932 24.4421 8.91477C24.4421 9.21591 24.3692 9.48674 24.2234 9.72727C24.0775 9.96591 23.8578 10.1544 23.5643 10.2926C23.2707 10.4309 22.9014 10.5 22.4563 10.5H20.1012ZM21.1552 9.61932H22.2887C22.6713 9.61932 22.9469 9.5464 23.1154 9.40057C23.2859 9.25284 23.3711 9.06345 23.3711 8.83239C23.3711 8.66004 23.3285 8.50473 23.2433 8.36648C23.158 8.22633 23.0368 8.11648 22.8796 8.03693C22.7224 7.95549 22.5349 7.91477 22.3171 7.91477H21.1552V9.61932ZM21.1552 7.15625H22.1978C22.3796 7.15625 22.5434 7.12311 22.6893 7.05682C22.8351 6.98864 22.9497 6.89299 23.033 6.76989C23.1183 6.64489 23.1609 6.49716 23.1609 6.3267C23.1609 6.10133 23.0813 5.91572 22.9222 5.76989C22.765 5.62405 22.5311 5.55114 22.2205 5.55114H21.1552V7.15625ZM26.5692 10.5881C26.2927 10.5881 26.0437 10.5388 25.8221 10.4403C25.6024 10.34 25.4281 10.1922 25.2994 9.99716C25.1725 9.80208 25.109 9.56155 25.109 9.27557C25.109 9.02936 25.1545 8.82576 25.2454 8.66477C25.3363 8.50379 25.4603 8.375 25.6175 8.27841C25.7747 8.18182 25.9518 8.1089 26.1488 8.05966C26.3477 8.00852 26.5531 7.97159 26.7653 7.94886C27.021 7.92235 27.2283 7.89867 27.3874 7.87784C27.5465 7.85511 27.6621 7.82102 27.734 7.77557C27.8079 7.72822 27.8448 7.6553 27.8448 7.55682V7.53977C27.8448 7.32576 27.7814 7.16004 27.6545 7.04261C27.5276 6.92519 27.3448 6.86648 27.1062 6.86648C26.8543 6.86648 26.6545 6.9214 26.5067 7.03125C26.3609 7.1411 26.2624 7.27083 26.2113 7.42045L25.2511 7.28409C25.3268 7.01894 25.4518 6.79735 25.6261 6.61932C25.8003 6.43939 26.0134 6.30492 26.2653 6.21591C26.5172 6.125 26.7956 6.07955 27.1005 6.07955C27.3107 6.07955 27.52 6.10417 27.7283 6.15341C27.9367 6.20265 28.127 6.28409 28.2994 6.39773C28.4717 6.50947 28.61 6.66193 28.7141 6.85511C28.8202 7.0483 28.8732 7.28977 28.8732 7.57955V10.5H27.8846V9.90057H27.8505C27.788 10.0218 27.6999 10.1354 27.5863 10.2415C27.4746 10.3456 27.3335 10.4299 27.163 10.4943C26.9944 10.5568 26.7965 10.5881 26.5692 10.5881ZM26.8363 9.83239C27.0427 9.83239 27.2217 9.79167 27.3732 9.71023C27.5247 9.62689 27.6412 9.51705 27.7227 9.38068C27.806 9.24432 27.8477 9.09564 27.8477 8.93466V8.42045C27.8155 8.44697 27.7605 8.47159 27.6829 8.49432C27.6071 8.51705 27.5219 8.53693 27.4272 8.55398C27.3325 8.57102 27.2388 8.58617 27.146 8.59943C27.0531 8.61269 26.9727 8.62405 26.9045 8.63352C26.7511 8.65436 26.6138 8.68845 26.4925 8.7358C26.3713 8.78314 26.2757 8.84943 26.2056 8.93466C26.1355 9.01799 26.1005 9.12595 26.1005 9.25852C26.1005 9.44792 26.1696 9.59091 26.3079 9.6875C26.4461 9.78409 26.6223 9.83239 26.8363 9.83239ZM33.3562 7.28977L32.4187 7.39205C32.3922 7.29735 32.3458 7.20833 32.2795 7.125C32.2151 7.04167 32.128 6.97443 32.0181 6.9233C31.9083 6.87216 31.7738 6.84659 31.6147 6.84659C31.4007 6.84659 31.2208 6.89299 31.0749 6.9858C30.931 7.0786 30.86 7.19886 30.8619 7.34659C30.86 7.47348 30.9064 7.5767 31.0011 7.65625C31.0977 7.7358 31.2567 7.80114 31.4783 7.85227L32.2227 8.01136C32.6355 8.10038 32.9424 8.24148 33.1431 8.43466C33.3458 8.62784 33.448 8.88068 33.4499 9.19318C33.448 9.4678 33.3675 9.71023 33.2085 9.92045C33.0513 10.1288 32.8325 10.2917 32.5522 10.4091C32.2719 10.5265 31.9499 10.5852 31.5863 10.5852C31.0522 10.5852 30.6223 10.4735 30.2965 10.25C29.9708 10.0246 29.7766 9.71117 29.7141 9.30966L30.717 9.21307C30.7624 9.41004 30.859 9.55871 31.0067 9.65909C31.1545 9.75947 31.3467 9.80966 31.5835 9.80966C31.8278 9.80966 32.0238 9.75947 32.1715 9.65909C32.3211 9.55871 32.396 9.43466 32.396 9.28693C32.396 9.16193 32.3477 9.05871 32.2511 8.97727C32.1564 8.89583 32.0086 8.83333 31.8079 8.78977L31.0636 8.63352C30.645 8.5464 30.3353 8.39962 30.1346 8.19318C29.9338 7.98485 29.8344 7.72159 29.8363 7.40341C29.8344 7.13447 29.9073 6.90152 30.055 6.70455C30.2047 6.50568 30.4121 6.35227 30.6772 6.24432C30.9442 6.13447 31.252 6.07955 31.6005 6.07955C32.1119 6.07955 32.5143 6.18845 32.8079 6.40625C33.1033 6.62405 33.2861 6.91856 33.3562 7.28977ZM34.2979 10.5V6.13636H35.3263V10.5H34.2979ZM34.815 5.51705C34.6521 5.51705 34.512 5.46307 34.3945 5.35511C34.2771 5.24526 34.2184 5.11364 34.2184 4.96023C34.2184 4.80492 34.2771 4.6733 34.3945 4.56534C34.512 4.45549 34.6521 4.40057 34.815 4.40057C34.9798 4.40057 35.1199 4.45549 35.2354 4.56534C35.3529 4.6733 35.4116 4.80492 35.4116 4.96023C35.4116 5.11364 35.3529 5.24526 35.2354 5.35511C35.1199 5.46307 34.9798 5.51705 34.815 5.51705ZM38.2873 10.5852C37.8517 10.5852 37.4776 10.4896 37.1651 10.2983C36.8545 10.107 36.6149 9.8428 36.4464 9.50568C36.2797 9.16667 36.1964 8.77652 36.1964 8.33523C36.1964 7.89205 36.2816 7.50095 36.4521 7.16193C36.6225 6.82102 36.863 6.55587 37.1737 6.36648C37.4862 6.17519 37.8555 6.07955 38.2816 6.07955C38.6358 6.07955 38.9492 6.14489 39.2219 6.27557C39.4966 6.40436 39.7153 6.58712 39.8782 6.82386C40.0411 7.05871 40.1339 7.33333 40.1566 7.64773H39.1737C39.1339 7.4375 39.0392 7.26231 38.8896 7.12216C38.7418 6.98011 38.5439 6.90909 38.2958 6.90909C38.0856 6.90909 37.9009 6.96591 37.7418 7.07955C37.5827 7.19129 37.4587 7.35227 37.3697 7.5625C37.2826 7.77273 37.239 8.02462 37.239 8.31818C37.239 8.61553 37.2826 8.87121 37.3697 9.08523C37.4568 9.29735 37.579 9.46117 37.7362 9.5767C37.8952 9.69034 38.0818 9.74716 38.2958 9.74716C38.4473 9.74716 38.5827 9.71875 38.7021 9.66193C38.8233 9.60322 38.9246 9.51894 39.006 9.40909C39.0875 9.29924 39.1433 9.16572 39.1737 9.00852H40.1566C40.132 9.31723 40.0411 9.59091 39.8839 9.82955C39.7267 10.0663 39.5127 10.2519 39.2418 10.3864C38.971 10.5189 38.6528 10.5852 38.2873 10.5852Z" fill="white"/>
<defs>
<linearGradient id="paint0_linear_7923_33006" x1="10.9615" y1="-2.00001" x2="9.56065" y2="16.1197" gradientUnits="userSpaceOnUse">
<stop offset="0.00418135" stop-color="#33CC33"/>
<stop offset="0.989741" stop-color="#026841"/>
</linearGradient>
</defs>
</svg>
