<svg width="240" height="240" viewBox="0 0 240 240" fill="none" xmlns="http://www.w3.org/2000/svg">
<circle cx="120" cy="120" r="120" fill="white" fill-opacity="0.08"/>
<g opacity="0.7" clip-path="url(#clip0_3915_68948)">
<path d="M44.3171 155.391L49.2782 155.287L51.7234 155.242C52.5372 155.242 53.3473 155.242 54.1575 155.242L53.9902 155.41V151.251L54.176 151.437L49.2373 151.393C47.5948 151.393 45.9559 151.352 44.3171 151.333L44.4175 151.233C44.4175 151.913 44.3877 152.597 44.3692 153.288L44.3171 155.391ZM44.3171 155.391L44.2651 153.332C44.2465 152.637 44.2205 151.935 44.2168 151.233V151.132H44.3208C45.9597 151.114 47.5985 151.073 49.241 151.073L54.1612 151.051H54.347V151.24L54.3247 155.399V155.547H54.1612C53.3325 155.547 52.5001 155.547 51.6714 155.547L49.1964 155.503L44.3171 155.391Z" fill="#EBEBEB"/>
<path d="M89.9996 168.873H63.262V198.48H89.9996V168.873Z" fill="#EBEBEB"/>
<path d="M49.4565 198.483H63.262L63.262 168.873H49.4565V198.483Z" fill="#DCDBDB"/>
<path d="M50.408 196.443C51.4311 194.337 52.4444 192.232 53.4478 190.126L56.443 183.756L59.4159 177.361C60.4068 175.225 61.3768 173.082 62.3256 170.932C61.3049 173.035 60.2916 175.141 59.2858 177.249L56.2906 183.619L53.3251 190.014C52.3342 192.152 51.3618 194.295 50.408 196.443Z" fill="#EBEBEB"/>
<path d="M50.408 170.913C51.3618 173.056 52.3342 175.199 53.3251 177.342L56.2795 183.738L59.2709 190.107C60.2619 192.225 61.2752 194.331 62.3107 196.425C61.352 194.274 60.3821 192.131 59.401 189.996L56.4281 183.6L53.4329 177.231C52.4394 175.125 51.4311 173.019 50.408 170.913Z" fill="#EBEBEB"/>
<path d="M89.9996 124.157H63.262V151.723H89.9996V124.157Z" fill="#EBEBEB"/>
<path d="M49.4565 151.727H63.262V124.157H49.4565V151.727Z" fill="#DCDBDB"/>
<path d="M74.3621 130.556H74.9269H75.3543L75.5958 130.066L75.9377 130.556L76.3985 129.542L76.837 130.556H78.0893H78.6579L78.866 129.88L79.0593 130.556H79.4309V124.157H74.3621V130.556Z" fill="#DCDBDB"/>
<path d="M50.408 149.973C51.4311 148.016 52.4444 146.05 53.4478 144.075L56.443 138.13L59.4159 132.184C60.4068 130.202 61.3768 128.206 62.3256 126.197C61.3049 128.157 60.2916 130.124 59.2858 132.098L56.2906 138.044L53.3363 143.99C52.3379 145.974 51.3618 147.969 50.408 149.973Z" fill="#EBEBEB"/>
<path d="M50.408 126.19C51.3692 128.189 52.3404 130.185 53.3214 132.176L56.2757 138.122L59.2709 144.068C60.2619 146.05 61.2752 148.016 62.3107 149.966C61.352 147.966 60.3821 145.972 59.401 143.983L56.4281 138.037L53.4329 132.091C52.4394 130.121 51.4311 128.154 50.408 126.19Z" fill="#EBEBEB"/>
<path d="M65.0235 150.014H67.9927V147.045H65.0235V150.014Z" fill="white" fill-opacity="0.87"/>
<path d="M88.2195 151.727H61.4819V168.873H88.2195V151.727Z" fill="#DCDBDB"/>
<path d="M47.6765 168.873H61.4819V151.727H47.6765V168.873Z" fill="#C7C7C6"/>
<path d="M72.582 158.126H73.1469H73.5705L73.8158 157.632L74.154 158.126L74.6185 157.112L75.0533 158.126H76.3056H76.8779L77.0823 157.45L77.2792 158.126H77.6508V151.727H72.582V158.126Z" fill="white" fill-opacity="0.87"/>
<path d="M48.6279 167.851C49.6511 166.613 50.6644 165.363 51.6677 164.102L54.6629 160.334L57.6358 156.551C58.6268 155.287 59.598 154.019 60.5493 152.745C59.5286 153.984 58.5153 155.234 57.5095 156.495L54.5143 160.263L51.5414 164.05C50.5578 165.318 49.5867 166.585 48.6279 167.851Z" fill="#DCDBDB"/>
<path d="M48.6279 152.745C49.5867 154.016 50.5566 155.285 51.5377 156.551L54.5106 160.334L57.4909 164.094C58.4819 165.35 59.4951 166.6 60.5307 167.844C59.5695 166.573 58.5983 165.306 57.6173 164.042L54.6444 160.256L51.6491 156.487C50.6582 155.239 49.6511 153.991 48.6279 152.745Z" fill="#DCDBDB"/>
<path d="M192.324 172.582H165.586V198.483H192.324V172.582Z" fill="#DCDBDB"/>
<path d="M151.78 198.483H165.586V172.582H151.78V198.483Z" fill="#C7C7C6"/>
<path d="M176.686 178.981H177.251H177.678L177.92 178.487L178.258 178.981L178.722 177.967L179.161 178.981H180.41H180.982L181.186 178.305L181.383 178.981H181.755V172.582H176.686V178.981Z" fill="white" fill-opacity="0.87"/>
<path d="M152.732 196.941C153.755 195.058 154.768 193.171 155.771 191.278L158.767 185.585L161.721 179.869C162.712 177.959 163.683 176.043 164.634 174.12C163.614 176.003 162.601 177.891 161.595 179.784L158.599 185.477L155.627 191.196C154.658 193.104 153.693 195.019 152.732 196.941Z" fill="#DCDBDB"/>
<path d="M152.732 174.128C153.693 176.048 154.664 177.964 155.645 179.877L158.618 185.592L161.613 191.285C162.604 193.18 163.617 195.068 164.653 196.949C163.692 195.029 162.721 193.114 161.74 191.203L158.785 185.484L155.79 179.791C154.774 177.896 153.755 176.008 152.732 174.128Z" fill="#DCDBDB"/>
<path d="M152.966 167.866H115.923V198.472H152.966V167.866Z" fill="#52B5F9"/>
<path opacity="0.1" d="M152.966 167.866H115.923V198.472H152.966V167.866Z" fill="#010101"/>
<path d="M167.645 167.866H152.966V198.472H167.645V167.866Z" fill="#52B5F9"/>
<path opacity="0.2" d="M167.645 167.866H152.966V198.472H167.645V167.866Z" fill="#010101"/>
<path d="M166.63 196.361C165.545 194.184 164.468 192.001 163.401 189.814L160.216 183.229L157.072 176.618C156.029 174.41 154.997 172.195 153.977 169.973C155.062 172.146 156.138 174.329 157.206 176.521L160.391 183.106L163.534 189.736C164.58 191.931 165.612 194.139 166.63 196.361Z" fill="#52B5F9"/>
<path d="M166.63 169.973C165.609 172.203 164.577 174.418 163.534 176.618L160.391 183.229L157.206 189.814C156.138 192.004 155.062 194.186 153.977 196.361C155 194.132 156.032 191.917 157.072 189.717L160.216 183.106L163.401 176.521C164.468 174.331 165.545 172.148 166.63 169.973Z" fill="#52B5F9"/>
<path d="M137.064 174.477H136.477H136.039L135.786 173.968L135.437 174.477L134.957 173.429L134.508 174.477H133.215H132.624L132.408 173.779L132.207 174.477H131.825V167.866H137.064V174.477Z" fill="white" fill-opacity="0.87"/>
<path d="M155.199 137.26H127.562V167.862H155.199V137.26Z" fill="#52B5F9"/>
<path d="M169.469 137.26H155.199V167.866H169.469V137.26Z" fill="#52B5F9"/>
<path opacity="0.1" d="M169.469 137.26H155.199V167.866H169.469V137.26Z" fill="#010101"/>
<g opacity="0.1">
<path opacity="0.1" d="M153.174 165.755C151.145 163.578 149.133 161.394 147.139 159.204L141.193 152.623L135.325 146.012C133.378 143.804 131.451 141.589 129.543 139.367C131.572 141.542 133.584 143.725 135.578 145.915L141.524 152.5L147.392 159.111C149.341 161.318 151.269 163.533 153.174 165.755Z" fill="#010101"/>
<path opacity="0.1" d="M153.174 139.367C151.264 141.597 149.336 143.812 147.392 146.012L141.524 152.623L135.578 159.204C133.596 161.396 131.584 163.58 129.543 165.755C131.453 163.526 133.38 161.311 135.325 159.111L141.193 152.5L147.139 145.915C149.131 143.727 151.142 141.545 153.174 139.367Z" fill="#010101"/>
</g>
<path d="M167.459 162.686H164.958V166.216H167.459V162.686Z" fill="white" fill-opacity="0.87"/>
<path d="M42.5 198.483L61.8759 198.394L81.2481 198.361L120 198.298L158.748 198.361L178.124 198.391L197.5 198.483L178.124 198.573L158.748 198.606L120 198.669L81.2481 198.606L61.8759 198.573L42.5 198.483Z" fill="#1A2F36"/>
<path d="M134.207 92.5624C134.419 92.6925 134.627 92.8225 134.835 92.96" stroke="#263238" stroke-width="0.75" stroke-miterlimit="10"/>
<path d="M136.076 93.8185C142.795 98.7906 148.031 107.832 142.17 116.669C138.722 121.872 132.88 119.727 130.855 117.862C128.625 115.803 130.676 113.692 132.902 115.104C136.76 117.55 137.302 123.206 133.029 127.386C130.242 130.11 126.618 130.281 124.626 130.121" stroke="white" stroke-opacity="0.38" stroke-width="0.75" stroke-miterlimit="10" stroke-dasharray="4.06 4.06"/>
<path d="M123.88 130.04C123.419 129.973 123.136 129.906 123.136 129.906" stroke="#263238" stroke-width="0.75" stroke-miterlimit="10"/>
<path d="M120.156 129.241C120.788 129.118 121.412 128.973 122.04 128.828C122.668 128.683 123.289 128.527 123.898 128.353C123.266 128.471 122.642 128.62 122.014 128.761C121.386 128.902 120.773 129.066 120.156 129.241Z" fill="#263238"/>
<path d="M121.475 128.557C121.394 128.617 121.321 128.687 121.256 128.765C121.19 128.842 121.134 128.927 121.089 129.018C121.246 128.894 121.373 128.736 121.46 128.557H121.475Z" fill="#263238"/>
<path d="M86.5436 164.615L78.6283 180.49C77.9742 183.768 77.4577 186.651 77.3313 188.171C77.3313 188.171 77.3313 188.171 77.3313 188.193C77.2604 188.546 77.2731 188.91 77.3685 189.256C77.3685 189.256 77.3685 189.256 77.3685 189.279C78.212 190.137 104.251 196.131 105.24 196.034C106.228 195.938 106.02 193.14 105.195 192.103C104.37 191.066 95.4215 184.299 95.4215 184.299L103.17 168.409L86.5436 164.615Z" fill="#FFBE9D"/>
<path d="M104.849 196.053C103.872 196.146 78.2269 190.152 77.387 189.301C77.3792 189.293 77.3729 189.285 77.3684 189.275C77.2752 188.929 77.2612 188.567 77.3275 188.216C77.3252 188.207 77.3252 188.198 77.3275 188.19C77.4576 186.674 77.9704 183.786 78.6245 180.508C78.6245 180.508 79.639 178.476 80.516 176.711L96.945 181.189L95.4288 184.299C95.4288 184.299 103.976 191.055 104.801 192.103C105.626 193.151 105.83 195.938 104.849 196.053Z" fill="#EBEBEB"/>
<path d="M105.202 195.618C104.214 195.693 78.1154 189.037 77.283 188.153C76.9597 187.822 77.7103 183.964 78.7471 179.327L78.7806 179.182L95.6667 183.27L95.5849 183.552C95.5849 183.552 104.437 190.568 105.247 191.635C106.057 192.701 106.191 195.548 105.202 195.618Z" fill="#263238"/>
<path d="M105.165 194.529C100.795 193.299 83.0542 188.755 78.632 187.878C78.5949 187.878 78.5874 187.878 78.632 187.907C82.9353 189.219 100.721 193.623 105.154 194.596C105.24 194.622 105.258 194.567 105.165 194.529Z" fill="white" fill-opacity="0.87"/>
<path d="M96.9897 183.983C95.3397 183.218 93.1546 182.943 91.5158 183.838C91.4526 183.875 91.5158 183.964 91.5641 183.961C93.3549 183.848 95.1527 183.928 96.9265 184.199C96.9525 184.2 96.9784 184.193 96.9997 184.178C97.021 184.163 97.0367 184.141 97.044 184.116C97.0513 184.091 97.05 184.064 97.0401 184.04C97.0302 184.016 97.0125 183.996 96.9897 183.983Z" fill="white" fill-opacity="0.87"/>
<path d="M98.045 185.053C96.3951 184.288 94.21 184.017 92.5749 184.912C92.5117 184.946 92.5749 185.035 92.6232 185.031C94.4128 184.921 96.2091 185 97.9819 185.269C98.0079 185.27 98.0337 185.263 98.0551 185.248C98.0764 185.233 98.092 185.211 98.0994 185.186C98.1067 185.161 98.1053 185.134 98.0955 185.11C98.0856 185.086 98.0678 185.066 98.045 185.053Z" fill="white" fill-opacity="0.87"/>
<path d="M99.1042 186.124C97.4542 185.38 95.2691 185.087 93.634 185.982C93.5671 186.016 93.634 186.109 93.6786 186.105C95.4694 185.991 97.2673 186.071 99.041 186.343C99.0685 186.347 99.0965 186.341 99.1198 186.325C99.1431 186.31 99.1602 186.287 99.1679 186.261C99.1756 186.234 99.1734 186.205 99.1617 186.18C99.15 186.155 99.1295 186.135 99.1042 186.124Z" fill="white" fill-opacity="0.87"/>
<path d="M105.842 194.782C106.262 195.083 105.76 196.64 105.392 196.666C105.024 196.692 76.5993 189.323 76.1422 189.093C75.6852 188.862 76.3058 187.172 76.8855 187.235C77.4652 187.298 105.842 194.782 105.842 194.782Z" fill="#52B5F9"/>
<path d="M82.3444 183.203C80.6944 181.776 78.4722 184.34 80.1147 185.77C81.7572 187.201 83.9981 184.633 82.3444 183.203Z" fill="white" fill-opacity="0.87"/>
<path d="M80.5793 175.421L99.6208 180.226C99.6208 180.226 117.369 148.193 116.971 140.055C116.421 128.81 103.222 94.2904 103.222 94.2904H87.4542C87.4542 94.2904 97.9188 131.619 98.0638 137.899C98.1344 141.184 80.5793 175.421 80.5793 175.421Z" fill="#455B64"/>
<path d="M100.434 176.358C99.42 175.952 90.3563 173.336 83.5929 171.898C83.5855 171.901 83.579 171.905 83.5744 171.912C83.5699 171.918 83.5674 171.926 83.5674 171.933C83.5674 171.941 83.5699 171.949 83.5744 171.955C83.579 171.962 83.5855 171.966 83.5929 171.969C85.7223 172.712 99.1561 176.254 100.42 176.428C100.446 176.443 100.479 176.38 100.434 176.358Z" fill="#263238"/>
<path d="M99.3792 129.884C98.1257 124.614 96.7891 119.364 95.3695 114.135C93.9314 108.887 92.4412 103.648 90.7838 98.4636C90.5782 97.8319 90.3713 97.2001 90.1632 96.5684C90.154 96.5522 90.1394 96.5396 90.122 96.5328C90.1046 96.526 90.0854 96.5254 90.0676 96.531C90.0497 96.5367 90.0344 96.5483 90.0241 96.5639C90.0138 96.5794 90.0091 96.5981 90.0109 96.6167C91.4973 101.775 92.9838 106.929 94.3959 112.109C95.808 117.29 97.1459 122.485 98.4093 127.698C98.7215 128.987 99.0299 130.279 99.3347 131.574C99.6851 132.904 99.9568 134.253 100.148 135.614C100.306 136.916 100.218 138.235 99.8884 139.505C99.5259 140.749 99.0571 141.96 98.4874 143.124C96.2106 148.067 93.9339 153.01 91.6571 157.955C89.3866 162.913 89.015 164.039 86.8261 169.04C86.5586 169.661 86.2873 170.282 86.0272 170.899C86.0255 170.906 86.0264 170.915 86.0299 170.922C86.0333 170.929 86.039 170.935 86.0461 170.939C86.0533 170.943 86.0615 170.944 86.0694 170.943C86.0774 170.942 86.0848 170.938 86.0904 170.932C88.5802 166.034 88.9629 164.852 91.2744 159.869C93.5858 154.886 95.9195 149.835 98.2273 144.815C99.2715 142.548 100.494 140.237 100.65 137.702C100.814 135.075 99.985 132.422 99.3792 129.884Z" fill="#263238"/>
<path d="M100.241 170.887L100.854 188.353C100.951 191.698 101.1 194.619 101.315 196.127C101.313 196.135 101.313 196.142 101.315 196.15C101.328 196.509 101.423 196.86 101.594 197.175C101.594 197.175 101.594 197.194 101.612 197.198C102.627 197.841 129.346 197.826 130.279 197.51C131.211 197.194 130.386 194.518 129.35 193.69C128.313 192.861 118.075 188.294 118.075 188.294L117.298 170.828L100.241 170.887Z" fill="#FFBE9D"/>
<path d="M100.728 184.778C100.728 184.778 100.854 188.353 100.854 188.364C100.951 191.709 101.1 194.63 101.315 196.139C101.313 196.146 101.313 196.153 101.315 196.161C101.369 196.512 101.462 196.856 101.594 197.186C101.594 197.186 101.594 197.205 101.612 197.209C102.627 197.852 129.346 197.837 130.279 197.521C131.211 197.205 130.386 194.529 129.35 193.701C128.313 192.872 118.075 188.305 118.075 188.305L117.997 184.667L100.728 184.778Z" fill="#EBEBEB"/>
<path d="M130.294 197.487C129.35 197.792 102.423 197.372 101.405 196.707C101.014 196.458 100.847 192.53 100.78 187.788V187.64L118.157 187.714V188.008C118.157 188.008 128.391 192.779 129.432 193.63C130.472 194.481 131.241 197.19 130.294 197.487Z" fill="#263238"/>
<path d="M130.004 196.425C125.467 196.243 107.15 195.938 102.649 196.101C102.612 196.101 102.612 196.127 102.649 196.131C107.142 196.41 125.463 196.566 130.004 196.503C130.101 196.514 130.101 196.443 130.004 196.425Z" fill="white" fill-opacity="0.87"/>
<path d="M119.602 188.078C117.822 187.707 115.634 187.956 114.251 189.193C114.196 189.241 114.251 189.316 114.322 189.301C116.038 188.774 117.806 188.433 119.595 188.286C119.616 188.279 119.635 188.265 119.648 188.247C119.662 188.229 119.67 188.207 119.67 188.185C119.671 188.162 119.665 188.14 119.653 188.121C119.641 188.102 119.623 188.087 119.602 188.078Z" fill="white" fill-opacity="0.87"/>
<path d="M120.881 188.873C119.101 188.502 116.912 188.755 115.526 189.988C115.474 190.037 115.544 190.115 115.6 190.096C117.315 189.572 119.082 189.233 120.87 189.085C120.891 189.078 120.909 189.064 120.923 189.046C120.936 189.027 120.944 189.006 120.945 188.983C120.946 188.96 120.941 188.938 120.929 188.919C120.918 188.899 120.901 188.883 120.881 188.873Z" fill="white" fill-opacity="0.87"/>
<path d="M122.159 189.672C120.379 189.301 118.19 189.55 116.804 190.787C116.748 190.836 116.804 190.91 116.878 190.891C118.594 190.368 120.36 190.029 122.148 189.881C122.169 189.874 122.188 189.86 122.202 189.843C122.216 189.825 122.224 189.803 122.225 189.78C122.226 189.758 122.221 189.735 122.209 189.716C122.197 189.697 122.18 189.682 122.159 189.672Z" fill="white" fill-opacity="0.87"/>
<path d="M130.721 196.529C131.201 196.722 131.07 198.338 130.721 198.465C130.372 198.591 101.011 198.004 100.513 197.885C100.015 197.766 100.227 195.975 100.806 195.893C101.386 195.812 130.721 196.529 130.721 196.529Z" fill="#52B5F9"/>
<path d="M105.18 190.717C103.244 189.71 101.676 192.72 103.616 193.727C105.555 194.734 107.12 191.724 105.18 190.717Z" fill="white" fill-opacity="0.87"/>
<path d="M103.043 94.2755V94.2941C102.973 94.6174 99.0373 110.173 98.5468 110.467C97.9894 110.797 112.847 130.787 114.608 140.597C115.723 146.874 118.324 183.459 118.324 183.459H99.3792C99.3792 183.459 97.5212 152.392 96.9043 142.154C96.6627 138.182 81.7573 119.817 80.3452 107.572C79.8993 103.715 82.6715 94.2755 82.6715 94.2755H103.043Z" fill="#455B64"/>
<path d="M98.8999 168.65C98.6769 163.5 98.4688 158.345 98.0935 153.206C97.8817 150.293 97.4655 147.472 97.1756 144.566C97.1756 144.414 97.0381 144.38 97.0418 144.536C97.1793 149.705 97.603 154.819 97.8817 159.981C98.1604 165.142 98.4205 166.354 98.7104 171.501C98.8776 174.414 99.0188 177.327 99.2455 180.237C99.2479 180.245 99.2527 180.251 99.259 180.256C99.2653 180.26 99.273 180.263 99.2808 180.263C99.2886 180.263 99.2962 180.26 99.3026 180.256C99.3089 180.251 99.3137 180.245 99.3161 180.237C99.331 175.064 99.1266 173.812 98.8999 168.65Z" fill="#263238"/>
<path d="M114.641 140.816C114.48 139.457 114.216 138.111 113.85 136.792C113.462 135.512 112.948 134.273 112.315 133.094C111.026 130.619 109.558 128.226 108.146 125.822C106.733 123.417 105.254 120.961 103.761 118.56C102.921 117.21 102.076 115.864 101.226 114.521C100.368 113.161 99.4573 111.834 98.5654 110.496C98.5585 110.486 98.5476 110.478 98.535 110.475C98.5225 110.472 98.5094 110.475 98.4985 110.482C98.4877 110.489 98.48 110.499 98.4772 110.512C98.4744 110.525 98.4768 110.538 98.4837 110.548C99.9292 112.975 101.364 115.413 102.813 117.843C104.262 120.274 105.689 122.711 107.12 125.149C108.551 127.587 109.933 129.95 111.275 132.388C111.94 133.544 112.51 134.752 112.98 136C113.424 137.294 113.745 138.626 113.939 139.98C114.441 143.128 114.857 146.298 115.489 149.416C115.489 149.456 115.563 149.445 115.559 149.416C115.344 146.539 115.013 143.656 114.641 140.816Z" fill="#263238"/>
<path d="M116.644 180.185C115.559 180.044 107.309 179.758 100.405 180.051C100.397 180.054 100.391 180.059 100.386 180.065C100.382 180.071 100.379 180.079 100.379 180.087C100.379 180.095 100.382 180.102 100.386 180.108C100.391 180.115 100.397 180.12 100.405 180.122C102.657 180.323 115.37 180.408 116.637 180.263C116.678 180.26 116.693 180.189 116.644 180.185Z" fill="#263238"/>
<path d="M101.018 109.37C99.0884 110.075 97.2234 110.946 95.4437 111.972C95.4284 111.979 95.4165 111.991 95.4106 112.007C95.4046 112.023 95.4052 112.04 95.4121 112.055C95.419 112.071 95.4317 112.083 95.4474 112.089C95.463 112.094 95.4804 112.094 95.4957 112.087C97.3798 111.277 99.2973 110.504 101.133 109.593C101.163 109.578 101.185 109.552 101.195 109.52C101.205 109.488 101.202 109.454 101.187 109.424C101.172 109.395 101.145 109.373 101.114 109.362C101.082 109.352 101.047 109.355 101.018 109.37Z" fill="#263238"/>
<path d="M101.586 96.4792C101.586 96.4123 101.464 96.4012 101.468 96.4792C101.468 98.7089 101.337 100.682 101.152 102.771C101.062 103.741 100.282 109.088 98.6024 108.716C98.3199 108.65 98.175 108.371 98.1304 107.947C98.1388 107.393 98.2137 106.841 98.3534 106.305C98.5429 105.19 98.6916 104.056 98.7882 102.923C98.9822 100.82 98.9598 98.7035 98.7213 96.6056C98.7213 96.5908 98.7154 96.5766 98.705 96.5661C98.6945 96.5557 98.6803 96.5498 98.6655 96.5498C98.6508 96.5498 98.6366 96.5557 98.6261 96.5661C98.6157 96.5766 98.6098 96.5908 98.6098 96.6056C98.6597 99.5314 98.4895 102.457 98.1007 105.357C97.8889 106.751 97.1865 108.85 98.6433 109.073C100.1 109.296 101.088 105.777 101.271 104.818C101.738 102.064 101.844 99.2608 101.586 96.4792Z" fill="#263238"/>
<path d="M98.6618 108.839C98.5141 109.202 98.39 109.575 98.2902 109.954C98.1818 110.246 98.1288 110.556 98.1342 110.868C98.1342 110.928 98.2196 110.931 98.2494 110.894C98.4171 110.618 98.5424 110.319 98.621 110.006C98.751 109.66 98.8848 109.318 98.9926 108.973C98.9941 108.934 98.9836 108.895 98.9624 108.863C98.9413 108.83 98.9105 108.804 98.8743 108.79C98.8381 108.775 98.7983 108.772 98.7602 108.781C98.7222 108.79 98.6878 108.81 98.6618 108.839Z" fill="#263238"/>
<path d="M99.4349 147.115C99.2602 144.473 99.2714 141.682 98.1454 139.226C97.5456 138.032 96.8575 136.884 96.0866 135.792C95.3186 134.623 94.5605 133.444 93.8124 132.254C90.8394 127.509 87.9706 122.667 85.3582 117.702C84.0984 115.313 82.9389 112.845 82.3072 110.207C81.6892 107.432 81.5722 104.569 81.9616 101.752C82.0471 101.05 82.1437 100.351 82.2626 99.6528C82.2626 99.6008 82.1957 99.5822 82.1846 99.6528C81.5737 102.332 81.3634 105.087 81.5603 107.828C81.8493 110.447 82.5885 112.997 83.7453 115.365C84.8974 117.862 86.2686 120.262 87.6176 122.652C89.0124 125.115 90.448 127.555 91.9246 129.973C93.411 132.377 94.9458 134.729 96.4805 137.089C97.2627 138.206 97.8728 139.433 98.2903 140.731C98.6288 142.083 98.8219 143.467 98.8663 144.86C99.2379 150.712 100.724 170.155 101.252 175.975L101.453 178.204C101.453 178.268 101.561 178.268 101.557 178.204C101.33 172.348 99.8213 152.946 99.4349 147.115Z" fill="#263238"/>
<path d="M90.3453 99.3927C90.3453 99.3518 90.2784 99.3667 90.2747 99.3927C90.2227 101.017 90.2747 102.693 89.643 104.224C89.067 105.632 87.9187 106.621 86.6292 107.36C85.8777 107.778 85.105 108.156 84.314 108.493C84.2583 108.519 84.2806 108.609 84.3438 108.59C85.8302 108.114 87.365 107.598 88.6062 106.598C89.9403 105.532 90.52 103.997 90.5869 102.306C90.6058 101.329 90.5249 100.353 90.3453 99.3927Z" fill="#263238"/>
<path d="M98.5915 72.9226C100.713 79.4482 106.459 90.5631 108.51 91.9046C110.327 93.0901 118.878 91.7634 122.631 90.8641C124.032 90.526 120.888 79.8718 119.398 80.2657C117.611 80.7339 112.285 81.9305 111.895 81.6369C111.505 81.3434 106.143 74.7249 102.334 70.8304C98.8702 67.3038 97.7888 70.4477 98.5915 72.9226Z" fill="#FFBE9D"/>
<path d="M121.81 90.9459C122.527 90.853 128.595 90.5743 131.379 89.0618C132.865 88.2554 136.656 85.5872 136.28 84.6284C135.935 83.7552 134.712 84.2308 134.712 84.2308C134.712 84.2308 136.392 83.0156 135.898 81.8042C135.403 80.5927 133.385 81.5032 133.385 81.5032C133.385 81.5032 135.017 80.1282 134.441 78.9576C133.865 77.787 131.981 79.0394 131.981 79.0394C131.981 79.0394 133.534 77.8539 132.65 77.0884C131.591 76.1668 128.978 78.6752 127.213 79.2661C126.812 79.3998 118.9 81.3991 118.9 81.3991L121.81 90.9459Z" fill="#FFBE9D"/>
<path d="M131.914 78.9948C129.989 80.8529 128.83 81.3099 126.258 81.8302C126.21 81.8302 126.213 81.9157 126.258 81.912C128.822 81.6295 130.364 81.2505 132.003 79.084C132.107 78.9948 132.007 78.9168 131.914 78.9948Z" fill="#263238"/>
<path d="M133.322 81.4586C131.156 83.194 129.9 83.718 127.247 84.4612C127.209 84.4612 127.224 84.5355 127.247 84.5281C129.911 84.019 131.438 83.6028 133.378 81.5812C133.478 81.4883 133.419 81.3768 133.322 81.4586Z" fill="#263238"/>
<path d="M134.582 84.2605C132.352 85.7916 131.015 86.4233 128.346 86.8172C128.334 86.8172 128.321 86.8223 128.312 86.8314C128.303 86.8404 128.298 86.8527 128.298 86.8655C128.298 86.8784 128.303 86.8906 128.312 86.8997C128.321 86.9088 128.334 86.9139 128.346 86.9139C131.104 86.7801 132.806 86.0034 134.616 84.3349C134.746 84.2197 134.708 84.1639 134.582 84.2605Z" fill="#263238"/>
<path d="M116.83 81.741C116.83 81.741 119.041 79.24 120.253 78.3556C121.464 77.4712 127.202 75.8361 127.625 77.055C128.172 78.6269 125.046 80.2248 123.415 80.8045C123.415 80.8045 124.682 84.4426 122.672 86.074C120.661 87.7054 116.83 81.741 116.83 81.741Z" fill="#FFBE9D"/>
<path d="M127.648 77.5381C127.113 79.3292 124.92 79.9573 123.378 80.6373C123.355 80.646 123.334 80.6603 123.317 80.6789C123.301 80.6976 123.289 80.72 123.283 80.7442C123.277 80.7684 123.277 80.7936 123.284 80.8178C123.29 80.8419 123.302 80.8642 123.318 80.8826C123.746 82.4434 123.898 84.7697 122.806 86.0852C122.801 86.0929 122.799 86.102 122.801 86.1109C122.802 86.1197 122.806 86.128 122.812 86.1343C122.819 86.1406 122.827 86.1447 122.836 86.1459C122.845 86.1471 122.854 86.1453 122.861 86.1409C124.225 84.8886 124.262 82.592 123.683 80.9123C125.273 80.2397 127.447 79.515 127.666 77.5418L127.648 77.5381Z" fill="#263238"/>
<path d="M121.806 92.7817L119 80.0205L112.07 81.2802C109.335 78.1475 103.868 71.8858 101.665 70.0017C99.0632 67.7944 97.3613 69.4555 98.32 72.7963C100.501 80.4404 106.834 91.6445 108.506 92.7222C110.884 94.2607 121.806 92.7817 121.806 92.7817Z" fill="#52B5F9"/>
<path opacity="0.1" d="M111.906 85.1599C112.25 85.2345 112.599 85.2756 112.95 85.2825C113.694 85.3828 114.021 86.4791 113.344 86.8953C112.989 87.1141 112.586 87.2466 112.17 87.2821C111.754 87.3175 111.335 87.2551 110.947 87.0997C110.204 86.8098 109.58 86.0889 109.736 85.2416C109.765 85.0842 109.833 84.9369 109.935 84.8137C110.037 84.6905 110.169 84.5956 110.319 84.5381C110.468 84.4807 110.629 84.4626 110.788 84.4855C110.946 84.5085 111.096 84.5718 111.222 84.6693C111.431 84.8577 111.661 85.0222 111.906 85.1599ZM109.989 82.1238C109.721 83.3873 111.672 84.4724 112.675 83.796C112.756 83.7352 112.822 83.6567 112.869 83.5665C112.915 83.4764 112.94 83.3769 112.942 83.2756C112.944 83.1744 112.923 83.0739 112.881 82.9819C112.839 82.8899 112.776 82.8086 112.698 82.7444C112.408 82.5065 112.163 82.4731 111.903 82.2576C111.811 82.1863 111.73 82.101 111.665 82.0049C111.514 81.8054 111.326 81.6375 111.111 81.5106C110.998 81.4615 110.875 81.4389 110.752 81.4444C110.628 81.45 110.508 81.4836 110.4 81.5428C110.292 81.6019 110.198 81.685 110.127 81.7857C110.056 81.8864 110.008 82.002 109.989 82.1238ZM106.867 82.1907C106.466 82.7109 106.771 83.5025 107.124 83.9781C107.282 84.215 107.501 84.4055 107.758 84.5302C108.014 84.6549 108.3 84.7093 108.584 84.6879C108.688 84.6733 108.785 84.6291 108.864 84.5605C108.943 84.4919 109.001 84.4019 109.03 84.3013C109.059 84.2008 109.058 84.0939 109.028 83.9937C108.997 83.8935 108.939 83.8042 108.859 83.7366C108.629 83.5669 108.445 83.342 108.324 83.0825C108.149 82.6923 108.03 82.1832 107.581 82.0086C107.457 81.9622 107.323 81.9548 107.195 81.9874C107.068 82.0199 106.953 82.0909 106.867 82.1907ZM115.102 90.4554C114.578 91.5145 116.172 92.7185 117.139 92.5067C117.462 92.4398 117.774 92.0124 117.488 91.7114C117.202 91.4104 116.979 91.2692 116.767 91.0128C116.503 90.6969 116.358 90.2881 115.946 90.1321C115.79 90.0671 115.616 90.0644 115.459 90.1247C115.302 90.1849 115.174 90.3033 115.102 90.4554ZM100.148 77.4675C100.057 77.2935 99.9304 77.1403 99.7768 77.0178C99.9849 77.5505 100.204 78.0843 100.435 78.6195C100.447 78.2165 100.348 77.8179 100.148 77.4675ZM102.215 76.3526C102.142 75.4354 101.784 74.5637 101.193 73.8591C100.747 73.2868 99.9737 72.3726 99.1562 72.5696C99.069 72.5974 98.993 72.6526 98.9395 72.7268C98.886 72.8011 98.8577 72.8906 98.8589 72.9821C98.8068 73.6101 99.5278 74.2827 99.8362 74.7844C100.23 75.4162 100.505 76.1148 100.906 76.7391C100.992 76.8627 101.115 76.956 101.257 77.0054C101.399 77.0548 101.553 77.0578 101.697 77.014C101.841 76.9701 101.967 76.8818 102.057 76.7616C102.148 76.6414 102.198 76.4956 102.2 76.3452L102.215 76.3526ZM101.973 80.3512C102.119 80.3445 102.259 80.291 102.372 80.1986C102.485 80.1062 102.565 79.9799 102.601 79.8384C102.659 79.5498 102.64 79.2512 102.545 78.9725C102.486 78.7035 102.35 78.4572 102.155 78.2627C102.088 78.2017 102.006 78.159 101.917 78.1388C101.828 78.1186 101.736 78.1215 101.648 78.1472C101.561 78.173 101.482 78.2207 101.418 78.2858C101.355 78.3509 101.309 78.4313 101.286 78.5191C101.259 78.7376 101.259 78.9584 101.286 79.1769C101.291 79.2709 101.291 79.3652 101.286 79.4593C101.285 79.5995 101.301 79.7392 101.334 79.8755C101.375 80.0097 101.457 80.1273 101.57 80.2115C101.682 80.2957 101.818 80.342 101.958 80.3438L101.973 80.3512Z" fill="#020202"/>
<path d="M119.379 91.6631C119.06 90.9199 118.265 87.6199 118.09 86.795C117.915 85.97 117.265 82.6552 117.075 81.8079C117.075 81.7633 117.127 81.7336 117.142 81.7819C117.343 82.6143 118.239 85.8882 118.432 86.7095C118.625 87.5308 119.372 90.8232 119.42 91.6519C119.42 91.6566 119.418 91.6611 119.415 91.6648C119.412 91.6685 119.408 91.6711 119.404 91.6723C119.399 91.6736 119.395 91.6733 119.39 91.6717C119.386 91.67 119.382 91.667 119.379 91.6631Z" fill="#263238"/>
<path opacity="0.1" d="M112.943 93.4171C110.996 93.4171 109.283 93.2313 108.484 92.7222C106.837 91.6297 100.487 80.4404 98.2903 72.7963C97.7403 70.8788 98.0711 69.5149 98.9406 69.1173L112.943 93.4171Z" fill="#010101"/>
<path d="M81.4935 96.0147C81.5418 96.0816 104.73 99.0582 104.976 98.8427C105.11 98.1963 105.204 97.5422 105.258 96.8843C105.258 96.8843 103.133 71.6368 102.033 70.1578C101.07 68.8646 98.1492 67.9281 96.1611 68.7717C91.9879 70.5406 81.9952 93.0975 82.1029 94.0414C82.1029 94.0266 81.434 95.9255 81.4935 96.0147Z" fill="#52B5F9"/>
<path opacity="0.1" d="M89.851 92.9414C90.2089 93.1143 90.5822 93.2536 90.9658 93.3577C91.7388 93.6661 91.8094 94.9556 90.9658 95.2157C90.5184 95.3597 90.0435 95.3963 89.5793 95.3227C89.1152 95.2491 88.6748 95.0674 88.2939 94.7921C87.5507 94.2718 87.0713 93.3056 87.4727 92.4435C87.822 91.678 88.7101 91.6519 89.249 92.2168C89.4571 92.4546 89.5834 92.7631 89.851 92.9414ZM88.5801 89.1027C87.9446 90.4145 89.7878 92.1239 91.0624 91.6594C91.1686 91.6165 91.2635 91.5497 91.3396 91.4642C91.4157 91.3787 91.471 91.2767 91.5012 91.1663C91.5314 91.0559 91.5357 90.94 91.5137 90.8276C91.4918 90.7152 91.4442 90.6095 91.3746 90.5185C91.1219 90.1804 90.8618 90.0726 90.6314 89.7753C90.5505 89.6734 90.4865 89.5593 90.4418 89.4371C90.333 89.1772 90.1724 88.942 89.9699 88.7459C89.5165 88.3149 88.8142 88.6196 88.5801 89.1027ZM86.4359 87.7054C85.7409 87.9655 85.5588 88.902 85.6146 89.5635C85.6245 89.885 85.72 90.1981 85.8911 90.4704C86.0622 90.7428 86.3029 90.9646 86.5882 91.1131C86.6957 91.1594 86.8143 91.174 86.9298 91.1551C87.0453 91.1362 87.153 91.0846 87.2402 91.0064C87.3273 90.9283 87.3903 90.8268 87.4216 90.714C87.4529 90.6012 87.4513 90.4818 87.4169 90.3699C87.3022 90.0745 87.2639 89.755 87.3054 89.4408C87.3723 88.9615 87.5618 88.4078 87.246 87.9804C87.158 87.8541 87.0319 87.7592 86.8861 87.7098C86.7403 87.6603 86.5826 87.6588 86.4359 87.7054ZM94.0539 92.1276C93.8786 92.1125 93.7041 92.1648 93.5659 92.2739C93.4278 92.383 93.3365 92.5407 93.3107 92.7148C93.2919 92.903 93.3396 93.0919 93.4454 93.2487C93.5513 93.4055 93.7088 93.5203 93.8904 93.5732C94.1423 93.6587 94.4153 93.6587 94.6671 93.5732C94.7978 93.5256 94.9055 93.4299 94.9681 93.3056C95.0434 93.1862 95.0749 93.0444 95.0573 92.9043C95.0357 92.7744 94.9757 92.6539 94.8849 92.5585C94.7942 92.4631 94.6769 92.3971 94.5482 92.3692L94.4664 92.2874C94.3474 92.1951 94.2041 92.1396 94.0539 92.1276ZM88.3534 83.1606C87.7328 83.7998 88.0003 85.2528 88.6953 85.7396C88.7869 85.8064 88.8941 85.8487 89.0066 85.8624C89.1192 85.8761 89.2334 85.8609 89.3384 85.8181C89.4434 85.7752 89.5357 85.7063 89.6065 85.6178C89.6774 85.5292 89.7244 85.4241 89.7432 85.3122C89.7562 85.1663 89.7562 85.0196 89.7432 84.8737C89.7432 84.7139 89.7246 84.6099 89.7432 84.5021C89.8007 84.1846 89.812 83.8604 89.7767 83.5396C89.7491 83.3876 89.6789 83.2466 89.5742 83.1331C89.4694 83.0195 89.3346 82.9381 89.1853 82.8984C89.0361 82.8586 88.8786 82.8622 88.7313 82.9086C88.5839 82.955 88.4529 83.0424 88.3534 83.1606ZM84.3288 92.3915C83.4667 93.406 84.8825 95.1525 85.9973 95.186C86.369 95.186 86.826 94.8144 86.5919 94.4093C86.4061 94.0823 86.1609 93.7924 85.9936 93.4506C85.793 93.0343 85.7447 92.5513 85.3359 92.2688C85.1837 92.1579 84.9951 92.1088 84.8082 92.1316C84.6212 92.1544 84.4499 92.2472 84.3288 92.3915ZM104.831 92.0682C104.691 92.0891 104.56 92.1512 104.456 92.2464C104.351 92.3417 104.277 92.4659 104.244 92.6033C104.125 93.0158 104.11 93.3837 103.801 93.7181C103.46 93.9853 103.154 94.295 102.891 94.6397C102.848 94.7239 102.827 94.8178 102.831 94.9123C102.835 95.0068 102.864 95.0986 102.914 95.1787C102.964 95.2589 103.034 95.3246 103.118 95.3696C103.201 95.4145 103.294 95.437 103.389 95.435C104.038 95.3552 104.632 95.0309 105.05 94.5282C104.979 93.8185 104.916 92.9898 104.831 92.0682ZM102.973 89.0023C102.761 89.5077 102.802 90.08 102.627 90.6077C102.473 91.0916 102.289 91.5656 102.077 92.0273C101.925 92.3617 102.237 92.8894 102.642 92.711C103.3 92.4572 103.839 91.965 104.151 91.3324C104.433 90.7489 104.745 89.7679 104.474 89.1436C104.203 88.5192 103.266 88.2851 102.962 89.0023H102.973ZM100.854 94.0674C100.543 94.4635 100.148 94.7868 99.6987 95.015C99.5911 95.0485 99.4918 95.1044 99.4074 95.1791C99.323 95.2538 99.2554 95.3456 99.2092 95.4484C99.163 95.5512 99.1391 95.6627 99.1392 95.7754C99.1393 95.8881 99.1634 95.9995 99.2099 96.1022C99.2563 96.2049 99.3241 96.2966 99.4086 96.3711C99.4932 96.4457 99.5926 96.5014 99.7003 96.5346C99.8081 96.5678 99.9216 96.5777 100.033 96.5636C100.145 96.5496 100.253 96.512 100.349 96.4532C100.733 96.2877 101.076 96.0404 101.355 95.7284C101.634 95.4165 101.841 95.0474 101.962 94.6472C101.994 94.5065 101.979 94.359 101.919 94.228C101.858 94.097 101.756 93.9898 101.627 93.9234C101.499 93.857 101.353 93.8351 101.211 93.8611C101.069 93.8872 100.939 93.9598 100.843 94.0674H100.854ZM97.4542 75.8584C97.6622 75.9015 97.8788 75.863 98.0593 75.751C98.2398 75.639 98.3704 75.4619 98.4241 75.2564C98.6322 74.4574 97.9187 73.6324 97.3539 73.1345C96.789 72.6365 95.99 72.1831 95.2022 72.4432C95.0968 72.4774 95.0019 72.5379 94.9265 72.619C94.8511 72.7001 94.7976 72.7992 94.7712 72.9067C94.7447 73.0143 94.7462 73.1269 94.7755 73.2337C94.8048 73.3405 94.8608 73.4381 94.9384 73.5172C95.284 73.9483 95.7634 74.2604 96.1313 74.6841C96.4991 75.1077 96.8039 75.7506 97.443 75.8584H97.4542ZM100.297 79.0097C100.609 78.5563 100.368 77.8948 100.145 77.4675C100.026 77.2318 99.8412 77.0357 99.6133 76.9026C99.5376 76.853 99.4527 76.8189 99.3638 76.8023C99.2748 76.7858 99.1834 76.787 99.0949 76.806C99.0064 76.825 98.9226 76.8614 98.8482 76.9131C98.7739 76.9648 98.7106 77.0307 98.6619 77.107C98.5606 77.3183 98.5446 77.5605 98.6173 77.7833C98.6494 77.8979 98.6904 78.0097 98.74 78.1178C98.7393 78.1302 98.7393 78.1426 98.74 78.1549V78.1847C98.8047 78.5451 98.9537 78.885 99.1748 79.1769C99.2541 79.2513 99.3496 79.3066 99.4537 79.3383C99.5578 79.37 99.6678 79.3773 99.7752 79.3597C99.8826 79.3421 99.9845 79.3 100.073 79.2368C100.162 79.1735 100.234 79.0907 100.286 78.9948L100.297 79.0097ZM102.211 76.3452C102.138 75.4279 101.781 74.5563 101.189 73.8517C100.743 73.2794 99.97 72.3652 99.1525 72.5622C99.0653 72.59 98.9893 72.6451 98.9358 72.7194C98.8823 72.7936 98.854 72.8831 98.8552 72.9746C98.8032 73.6027 99.5241 74.2753 99.8325 74.777C100.226 75.4087 100.501 76.1074 100.903 76.7317C100.987 76.8564 101.11 76.951 101.252 77.0016C101.394 77.0522 101.548 77.0563 101.693 77.0132C101.837 76.9702 101.964 76.8822 102.055 76.7621C102.147 76.642 102.197 76.496 102.2 76.3452H102.211ZM99.4052 82.7109C99.5423 82.7407 99.6842 82.7407 99.8214 82.7109C100.024 82.6508 100.197 82.5186 100.308 82.3393C100.409 82.139 100.457 81.9167 100.449 81.6927C100.446 81.4823 100.388 81.2762 100.282 81.0944C100.241 81.0424 100.2 80.9941 100.163 80.942L99.9997 80.8231C99.8528 80.7454 99.684 80.7193 99.5204 80.7488C99.3734 80.7709 99.2364 80.8365 99.1271 80.9372C99.0178 81.0379 98.9412 81.169 98.9072 81.3137C98.8436 81.5297 98.8 81.7511 98.7771 81.9751L98.8106 82.1795C98.8358 82.2813 98.887 82.3748 98.9592 82.4508C99.0743 82.5854 99.2314 82.677 99.4052 82.7109ZM101.969 80.3475C102.115 80.3407 102.255 80.2872 102.368 80.1949C102.481 80.1025 102.562 79.9762 102.597 79.8346C102.655 79.5461 102.636 79.2475 102.542 78.9688C102.482 78.6998 102.347 78.4534 102.151 78.259C102.084 78.198 102.002 78.1553 101.913 78.1351C101.824 78.1149 101.732 78.1178 101.645 78.1435C101.557 78.1692 101.478 78.217 101.415 78.2821C101.351 78.3472 101.305 78.4275 101.282 78.5154C101.256 78.7339 101.256 78.9547 101.282 79.1732C101.287 79.2672 101.287 79.3615 101.282 79.4556C101.281 79.5957 101.298 79.7355 101.33 79.8718C101.371 80.0072 101.453 80.1262 101.566 80.2111C101.68 80.296 101.817 80.3425 101.958 80.3438L101.969 80.3475Z" fill="#020202"/>
<path d="M100.676 74.1155C99.2603 73.9854 97.4468 70.9605 97.1049 69.0356C97.0826 68.9055 97.6437 67.7869 98.268 66.3971C98.6397 65.5535 99.0373 64.6022 99.3383 63.7103L104.481 66.9471C103.787 67.9567 103.22 69.0475 102.791 70.195C102.751 70.316 102.722 70.4404 102.705 70.5666C102.707 70.5876 102.707 70.6087 102.705 70.6298C102.575 71.373 102.047 74.2381 100.676 74.1155Z" fill="#FFBE9D"/>
<path d="M102.705 70.574C102.705 70.574 102.705 70.6112 102.705 70.6372C102.506 70.5985 102.309 70.5451 102.118 70.4774C98.9034 69.318 99.4683 65.0964 99.695 63.9296L100.981 64.736L104.493 66.9471C103.799 67.9567 103.231 69.0474 102.802 70.195C102.758 70.3181 102.726 70.445 102.705 70.574Z" fill="#263238"/>
<path d="M99.8735 57.7496C98.8107 59.6671 98.6249 65.8136 99.7992 67.445C101.501 69.8085 104.92 70.7301 107.087 68.5376C109.19 66.4157 109.286 58.4 107.915 56.854C105.897 54.5761 101.442 54.9254 99.8735 57.7496Z" fill="#FFBE9D"/>
<path d="M104.808 62.7218C104.808 62.7218 104.775 62.7404 104.775 62.759C104.775 63.1826 104.701 63.6657 104.314 63.7921C104.314 63.7921 104.314 63.8181 104.314 63.8144C104.786 63.7586 104.875 63.1232 104.808 62.7218Z" fill="#263238"/>
<path d="M104.444 62.2722C103.768 62.1941 103.668 63.558 104.296 63.6286C104.924 63.6992 105.013 62.3316 104.444 62.2722Z" fill="#263238"/>
<path d="M107.246 62.8668C107.246 62.8482 107.276 62.8891 107.276 62.9039C107.228 63.3276 107.246 63.8144 107.614 63.9853C107.614 63.9853 107.614 64.0113 107.614 64.0076C107.149 63.9073 107.135 63.2569 107.246 62.8668Z" fill="#263238"/>
<path d="M107.659 62.4543C108.339 62.4543 108.283 63.8218 107.659 63.8181C107.034 63.8144 107.086 62.4543 107.659 62.4543Z" fill="#263238"/>
<path d="M104.979 61.9935C104.796 62.0251 104.611 62.0475 104.426 62.0604C104.232 62.1105 104.027 62.0961 103.842 62.0195C103.79 61.9833 103.751 61.9312 103.731 61.8709C103.711 61.8106 103.711 61.7454 103.731 61.685C103.794 61.5759 103.883 61.4845 103.991 61.4195C104.099 61.3545 104.222 61.318 104.348 61.3134C104.604 61.2681 104.869 61.3183 105.091 61.4546C105.135 61.4902 105.169 61.5374 105.189 61.591C105.208 61.6446 105.212 61.7025 105.201 61.7583C105.189 61.8141 105.162 61.8656 105.123 61.9072C105.084 61.9487 105.034 61.9786 104.979 61.9935Z" fill="#263238"/>
<path d="M108.264 61.1908C108.085 61.1396 107.909 61.0788 107.737 61.0087C107.54 60.9721 107.361 60.8715 107.228 60.7226C107.195 60.6677 107.182 60.6035 107.19 60.5402C107.198 60.4769 107.227 60.4182 107.272 60.3732C107.374 60.2957 107.494 60.2471 107.621 60.2327C107.748 60.2183 107.877 60.2386 107.993 60.2915C108.245 60.3586 108.462 60.5177 108.603 60.7374C108.632 60.7896 108.646 60.8493 108.643 60.9092C108.639 60.9692 108.618 61.0268 108.582 61.0749C108.546 61.1231 108.497 61.1597 108.441 61.1802C108.384 61.2008 108.323 61.2045 108.264 61.1908Z" fill="#263238"/>
<path d="M104.5 66.0701C105.048 65.9481 105.617 65.9557 106.161 66.0924C106.213 66.0924 106.262 65.9957 106.273 65.9511L106.306 65.0593C106.418 65.1262 106.997 65.4309 107.001 65.2637C107.06 63.8153 106.971 62.3648 106.737 60.9344C106.735 60.926 106.729 60.9188 106.722 60.9136C106.715 60.9085 106.707 60.9057 106.698 60.9057C106.689 60.9057 106.681 60.9085 106.674 60.9136C106.667 60.9188 106.662 60.926 106.659 60.9344C106.596 62.2722 106.771 63.6137 106.73 64.9589C106.524 64.8457 106.302 64.7631 106.072 64.7137C106.027 64.7137 106.072 65.6613 106.072 65.8025C105.561 65.6263 105 65.657 104.511 65.888C104.318 65.9883 104.236 66.1555 104.5 66.0701Z" fill="#263238"/>
<path d="M103.396 66.9582C103.493 67.0623 103.582 67.2035 103.734 67.2258C103.89 67.2295 104.046 67.203 104.192 67.1477C104.192 67.1477 104.218 67.1477 104.192 67.17C104.127 67.2476 104.042 67.3065 103.947 67.3404C103.851 67.3744 103.748 67.3823 103.649 67.3633C103.565 67.3362 103.49 67.2847 103.435 67.2152C103.38 67.1457 103.347 67.0614 103.341 66.9731C103.352 66.9508 103.385 66.9433 103.396 66.9582Z" fill="#263238"/>
<path opacity="0.2" d="M101.665 55.8024C101.613 56.7574 101.386 59.7155 100.921 60.3212C100.457 60.927 99.487 62.3242 98.989 62.5509C99.0596 60.5776 99.3606 58.701 99.8735 57.7199C100.29 56.9333 100.908 56.2715 101.665 55.8024Z" fill="#263238"/>
<path d="M106.96 58.6973C106.701 58.9614 106.378 59.1548 106.023 59.2589C105.668 59.363 105.292 59.3743 104.931 59.2919C104.563 59.2076 104.222 59.0311 103.94 58.7788C103.659 58.5266 103.446 58.207 103.322 57.85C103.322 57.8314 103.281 57.85 103.289 57.85C103.384 58.237 103.583 58.5906 103.865 58.8728C104.146 59.1551 104.5 59.3552 104.886 59.4516C105.273 59.5255 105.672 59.4956 106.044 59.365C106.415 59.2345 106.745 59.0079 107.001 58.7084C106.999 58.7045 106.997 58.701 106.994 58.6982C106.991 58.6954 106.987 58.6934 106.983 58.6923C106.979 58.6912 106.975 58.6911 106.971 58.692C106.967 58.6928 106.963 58.6946 106.96 58.6973Z" fill="#263238"/>
<path d="M105.098 53.1862C104.527 53.1493 103.956 53.2558 103.437 53.4959C102.918 53.7361 102.467 54.1023 102.125 54.5612C101.835 55.0292 101.711 55.5822 101.776 56.1294C101.776 56.1517 101.821 56.1517 101.821 56.1294C101.829 55.6496 101.967 55.181 102.218 54.7724C102.47 54.3638 102.827 54.0304 103.251 53.8068C103.716 53.5456 104.236 53.3958 104.768 53.3694C105.301 53.3429 105.832 53.4405 106.321 53.6545C106.802 53.8524 107.197 54.2145 107.436 54.6764C107.458 54.7247 107.555 54.7024 107.536 54.6541C107.231 53.844 106.235 53.242 105.098 53.1862Z" fill="#263238"/>
<path d="M112.2 56.4267C112.039 55.7924 111.658 55.2355 111.126 54.8548C110.383 54.3234 109.513 54.3308 108.64 54.3568C108.635 54.3568 108.63 54.3588 108.627 54.3622C108.623 54.3657 108.621 54.3705 108.621 54.3754C108.621 54.3803 108.623 54.385 108.627 54.3885C108.63 54.392 108.635 54.394 108.64 54.394C109.378 54.3164 110.123 54.4546 110.784 54.7916C111.324 55.1151 111.736 55.6152 111.951 56.2074C112.153 56.8146 112.13 57.4744 111.885 58.0657C111.64 58.6569 111.189 59.1398 110.617 59.4256C110.283 59.5814 109.921 59.6677 109.553 59.6792C109.185 59.6907 108.819 59.6272 108.476 59.4925C108.45 59.4925 108.424 59.5185 108.454 59.5297C108.916 59.7335 109.425 59.8046 109.925 59.735C110.425 59.6654 110.896 59.4578 111.285 59.1356C111.673 58.8133 111.964 58.3892 112.125 57.9107C112.286 57.4322 112.311 56.9183 112.196 56.4267H112.2Z" fill="#263238"/>
<path d="M99.4981 58.9499C99.4981 58.9499 98.4762 56.6162 99.5725 55.3899C100.193 54.695 102.059 54.9328 102.059 54.9328C102.334 54.5832 102.676 54.2913 103.064 54.0739C103.452 53.8564 103.88 53.7177 104.322 53.6656C105.92 53.4241 107.715 54.4794 107.715 54.4794C107.715 54.4794 109.272 53.7362 110.606 54.6429C112.464 55.9027 111.999 58.8496 109.97 59.6523C108.543 60.2172 106.767 58.8608 106.767 58.8608C106.585 58.8608 104.664 59.8418 103.396 58.0952C103.396 58.0952 102.192 59.0131 101.23 58.2327C101.049 58.515 100.786 58.7351 100.477 58.8633C100.167 58.9916 99.8255 59.0218 99.4981 58.9499Z" fill="#465359"/>
<path d="M100.104 62.8445C100.104 62.8445 99.1338 60.6631 98.1676 60.9864C97.2014 61.3097 97.6771 64.2752 98.6284 64.8549C98.7447 64.9345 98.8757 64.9902 99.0137 65.0188C99.1517 65.0473 99.294 65.0481 99.4323 65.0211C99.5707 64.9942 99.7022 64.9399 99.8194 64.8616C99.9366 64.7833 100.037 64.6825 100.115 64.565L100.104 62.8445Z" fill="#FFBE9D"/>
<path d="M98.3239 61.8262C98.3239 61.8262 98.3016 61.8262 98.3239 61.8522C98.9853 62.2796 99.2343 63.0191 99.3644 63.7586C99.3363 63.679 99.2913 63.6064 99.2326 63.5457C99.1739 63.4851 99.1028 63.4378 99.0241 63.4071C98.9455 63.3764 98.8611 63.363 98.7768 63.3679C98.6925 63.3728 98.6103 63.3958 98.5357 63.4353C98.5298 63.4353 98.5241 63.4377 98.5199 63.4419C98.5157 63.446 98.5134 63.4517 98.5134 63.4576C98.5134 63.4635 98.5157 63.4692 98.5199 63.4734C98.5241 63.4776 98.5298 63.4799 98.5357 63.4799C98.671 63.4648 98.8076 63.4926 98.9262 63.5593C99.0449 63.6259 99.1397 63.7282 99.1972 63.8515C99.2952 64.0546 99.3712 64.2677 99.4238 64.487C99.4461 64.5576 99.5688 64.5464 99.5576 64.4684V64.4498C99.7546 63.5245 99.2901 62.1049 98.3239 61.8262Z" fill="#263238"/>
<path d="M151.616 67.1764L111.607 79.4313L118.821 102.982L158.829 90.727L151.616 67.1764Z" fill="#52B5F9"/>
<path opacity="0.2" d="M151.616 67.1764L111.607 79.4313L118.821 102.982L158.829 90.727L151.616 67.1764Z" fill="#010101"/>
<path opacity="0.2" d="M151.618 67.1766L138.172 71.2949L145.386 94.8455L158.831 90.7271L151.618 67.1766Z" fill="#010101"/>
<path d="M150.967 68.3741C150.518 70.4551 150.078 72.5411 149.647 74.6321L148.376 80.9049L147.154 87.1889C146.747 89.2848 146.356 91.3831 145.979 93.484C146.43 91.403 146.87 89.317 147.299 87.226L148.57 80.9569L149.796 74.6729C150.197 72.5745 150.588 70.4749 150.967 68.3741Z" fill="#52B5F9"/>
<path d="M157.574 89.9351C156.087 88.4065 154.587 86.8866 153.074 85.3754L148.54 80.8529L143.973 76.3675C142.449 74.881 140.917 73.3946 139.376 71.9081C140.862 73.4392 142.361 74.9603 143.873 76.4715L148.41 80.9903L152.973 85.4757C154.497 86.977 156.03 88.4635 157.574 89.9351Z" fill="#52B5F9"/>
<path d="M119.292 82.4639L119.512 82.3964L118.564 79.3016L118.344 79.369L119.292 82.4639Z" fill="#263238"/>
<path d="M118.768 82.6184L118.989 82.551L118.041 79.4561L117.821 79.5236L118.768 82.6184Z" fill="#263238"/>
<path d="M118.234 82.7942L118.454 82.7267L117.506 79.6319L117.286 79.6994L118.234 82.7942Z" fill="#263238"/>
<path d="M117.721 82.9375L117.941 82.8701L116.994 79.7751L116.773 79.8425L117.721 82.9375Z" fill="#263238"/>
<path d="M117.19 83.1024L117.41 83.0349L116.462 79.9401L116.242 80.0076L117.19 83.1024Z" fill="#263238"/>
<path d="M116.666 83.2597L116.886 83.1923L115.938 80.0974L115.718 80.1649L116.666 83.2597Z" fill="#263238"/>
<path d="M116.128 83.4403L116.348 83.3728L115.4 80.278L115.18 80.3455L116.128 83.4403Z" fill="#263238"/>
<path d="M115.604 83.5964L115.825 83.5288L114.876 80.4342L114.656 80.5017L115.604 83.5964Z" fill="#263238"/>
<path d="M115.076 83.7585L115.297 83.6911L114.349 80.5962L114.128 80.6637L115.076 83.7585Z" fill="#263238"/>
<path d="M120.791 78.8759L119.874 78.8982L121.854 78.2924L121.085 78.7867L121.434 79.9238C122.062 79.8198 122.482 80.34 122.802 81.3842L120.821 81.99C120.505 80.9495 120.561 80.2768 121.141 80.013L120.791 78.8759Z" fill="#263238"/>
<path d="M122.783 79.6674L123.3 79.5076L122.835 77.9951L124.158 77.5864L124.623 79.1025L125.143 78.9428L124.445 80.8826L122.783 79.6674Z" fill="#263238"/>
<path opacity="0.1" d="M111.605 79.4296L112.2 81.362L139.855 76.8023L138.168 71.295L111.605 79.4296Z" fill="#010101"/>
<path d="M164.014 93.3948L150.565 97.5123L145.381 94.8441L158.83 90.7229L164.014 93.3948Z" fill="#52B5F9"/>
<path opacity="0.2" d="M164.014 93.3948L150.565 97.5123L145.381 94.8441L158.83 90.7229L164.014 93.3948Z" fill="#010101"/>
<path d="M116.02 108.096L129.469 103.975L132.267 98.8612L118.818 102.979L116.02 108.096Z" fill="#52B5F9"/>
<path opacity="0.1" d="M116.02 108.096L129.469 103.975L132.267 98.8612L118.818 102.979L116.02 108.096Z" fill="#010101"/>
<path d="M93.8868 75.7952C95.8527 82.369 101.319 93.6326 103.344 95.0076C105.132 96.2376 113.716 95.1191 117.466 94.3053C118.874 94.0005 115.979 83.2758 114.493 83.6325C112.698 84.0599 107.343 85.119 106.964 84.8254C106.585 84.5318 101.39 77.7647 97.6736 73.7922C94.2956 70.1838 93.1436 73.3091 93.8868 75.7952Z" fill="#FFBE9D"/>
<path d="M113.723 84.5058C113.723 84.5058 116.566 81.2988 118.58 80.0799C120.705 78.8605 123.096 78.1781 125.544 78.0918C128.187 77.984 134.645 79.5559 134.519 81.4958C134.404 83.2535 127.878 81.3137 127.878 81.3137C127.878 81.3137 134.857 82.1944 134.329 84.2866C133.802 86.3788 126.358 83.692 126.358 83.692C126.358 83.692 133.504 84.7585 132.62 86.8247C131.951 88.3855 125.072 86.3379 125.072 86.3379C125.072 86.3379 131.208 87.2966 130.591 88.9392C129.907 90.7489 123.437 89.255 123.437 89.255C121.163 93.1496 118.487 94.086 116.507 94.5059C116.027 94.6026 113.723 84.5058 113.723 84.5058Z" fill="#FFBE9D"/>
<path d="M125.485 80.8528C126.31 80.9272 127.142 80.9978 127.956 81.1427C128.77 81.2876 129.58 81.466 130.379 81.6853C131.425 81.9573 132.438 82.3462 133.397 82.8447C131.628 82.0829 128.722 81.5106 127.908 81.3582C127.094 81.2059 126.291 81.0238 125.481 80.8751C125.459 80.8789 125.466 80.8528 125.485 80.8528Z" fill="#263238"/>
<path d="M124.902 83.7812C125.95 83.9224 126.994 84.0227 128.038 84.2085C129.082 84.3943 130.041 84.6619 131.059 84.9146C131.137 84.9369 131.104 84.9703 131.022 84.9555C129.993 84.7399 129.023 84.621 127.99 84.4166C126.957 84.2122 125.935 83.9707 124.898 83.8072L124.902 83.7812Z" fill="#263238"/>
<path d="M123.95 86.2078C125.562 86.3813 127.151 86.7226 128.692 87.226C128.77 87.2483 128.718 87.2892 128.636 87.2706C127.068 86.899 125.838 86.6017 123.947 86.2635C123.932 86.2561 123.932 86.2041 123.95 86.2078Z" fill="#263238"/>
<path d="M116.618 96.2042L114.121 83.3798L107.157 84.4724C104.5 81.2765 99.186 74.8847 97.0158 72.9523C94.4703 70.6855 92.7274 72.3057 93.6007 75.6651C95.5963 83.3575 101.665 94.714 103.307 95.8289C105.663 97.4231 116.618 96.2042 116.618 96.2042Z" fill="#52B5F9"/>
<path opacity="0.1" d="M111.906 85.1599C112.25 85.2345 112.599 85.2756 112.951 85.2825C113.694 85.3828 114.021 86.4791 113.344 86.8953C112.989 87.1141 112.587 87.2466 112.17 87.2821C111.754 87.3175 111.335 87.2551 110.948 87.0997C110.204 86.8098 109.58 86.0889 109.736 85.2416C109.765 85.0842 109.833 84.9369 109.935 84.8137C110.037 84.6905 110.169 84.5956 110.319 84.5381C110.468 84.4807 110.629 84.4626 110.788 84.4855C110.946 84.5085 111.096 84.5718 111.223 84.6693C111.432 84.8577 111.661 85.0222 111.906 85.1599ZM111.163 83.8443C111.396 83.9567 111.653 84.0114 111.912 84.0036C112.17 83.9958 112.424 83.9259 112.65 83.7998C112.733 83.7441 112.8 83.6671 112.843 83.5768L111.163 83.8443ZM107.547 84.4092C107.843 84.6253 108.208 84.7246 108.573 84.6879C108.699 84.6707 108.814 84.6099 108.9 84.5162C108.985 84.4225 109.035 84.3018 109.041 84.1751L107.547 84.4092ZM115.437 90.1432C115.29 90.2048 115.17 90.3187 115.102 90.4628C114.79 91.0908 115.225 91.7671 115.845 92.1722L115.437 90.1432ZM104.236 92.6033C104.117 93.0121 104.102 93.3799 103.79 93.7181C103.451 93.9882 103.146 94.2976 102.88 94.6397C102.837 94.7244 102.816 94.8188 102.821 94.9137C102.825 95.0086 102.854 95.1008 102.904 95.1813C102.955 95.2617 103.025 95.3277 103.109 95.3729C103.193 95.418 103.287 95.4406 103.382 95.4387C104.028 95.3582 104.621 95.0378 105.043 94.5409C105.465 94.0441 105.685 93.4069 105.659 92.7556C105.633 92.5957 105.554 92.4489 105.436 92.3377C105.318 92.2265 105.167 92.157 105.006 92.1397C104.844 92.1224 104.682 92.1584 104.543 92.2421C104.404 92.3258 104.296 92.4526 104.236 92.6033ZM102.954 89.0023C102.742 89.5077 102.783 90.08 102.609 90.6077C102.454 91.0916 102.27 91.5656 102.059 92.0273C101.906 92.3617 102.218 92.8894 102.623 92.711C103.282 92.4572 103.82 91.965 104.132 91.3324C104.415 90.7489 104.727 89.7679 104.455 89.1436C104.184 88.5192 103.266 88.2851 102.962 89.0023H102.954ZM97.4357 75.8584C97.6437 75.9015 97.8603 75.863 98.0408 75.751C98.2213 75.639 98.3519 75.4619 98.4056 75.2564C98.6137 74.4574 97.9002 73.6324 97.3354 73.1345C96.7705 72.6365 95.9715 72.1831 95.1837 72.4432C95.0783 72.4774 94.9834 72.5379 94.908 72.619C94.8326 72.7001 94.7791 72.7992 94.7527 72.9067C94.7262 73.0143 94.7277 73.1269 94.757 73.2337C94.7863 73.3405 94.8423 73.4381 94.9199 73.5172C95.2655 73.9483 95.7449 74.2604 96.1128 74.6841C96.4806 75.1077 96.804 75.7506 97.4431 75.8584H97.4357ZM100.279 79.0097C100.591 78.5563 100.349 77.8948 100.126 77.4675C100.007 77.2318 99.8227 77.0357 99.5948 76.9026C99.5191 76.853 99.4343 76.8189 99.3453 76.8023C99.2563 76.7858 99.1649 76.787 99.0764 76.806C98.9879 76.825 98.9041 76.8614 98.8297 76.9131C98.7554 76.9648 98.6921 77.0307 98.6434 77.107C98.5421 77.3183 98.5261 77.5605 98.5988 77.7833C98.6309 77.8979 98.6719 78.0097 98.7215 78.1178C98.7208 78.1302 98.7208 78.1426 98.7215 78.1549V78.1847C98.7862 78.5451 98.9352 78.885 99.1563 79.1769C99.2357 79.2551 99.3323 79.3134 99.4385 79.3473C99.5446 79.3812 99.6572 79.3896 99.7672 79.3719C99.8772 79.3541 99.9815 79.3108 100.072 79.2453C100.162 79.1798 100.235 79.0939 100.286 78.9948L100.279 79.0097ZM99.4052 82.7109C99.5424 82.7407 99.6843 82.7407 99.8215 82.7109C100.024 82.6508 100.197 82.5186 100.308 82.3393C100.409 82.139 100.457 81.9167 100.449 81.6927C100.446 81.4823 100.388 81.2762 100.282 81.0944C100.241 81.0424 100.201 80.9941 100.163 80.942L99.9998 80.8231C99.8528 80.7454 99.6841 80.7193 99.5204 80.7488C99.3735 80.7709 99.2365 80.8365 99.1272 80.9372C99.0179 81.0379 98.9413 81.169 98.9073 81.3137C98.8436 81.5297 98.8001 81.7511 98.7772 81.9751L98.8107 82.1795C98.8359 82.2813 98.8871 82.3748 98.9593 82.4508C99.0743 82.5854 99.2315 82.677 99.4052 82.7109ZM102.545 78.9762L101.802 78.1401C101.683 78.1259 101.564 78.156 101.466 78.2245C101.368 78.2931 101.298 78.3953 101.271 78.5117C101.241 78.7287 101.241 78.9487 101.271 79.1657C101.271 79.2586 101.271 79.3515 101.271 79.4482C101.269 79.5882 101.284 79.7279 101.315 79.8644C101.356 80.0058 101.443 80.1295 101.562 80.2158C101.681 80.302 101.826 80.3457 101.973 80.34C102.118 80.3325 102.257 80.2787 102.37 80.1864C102.482 80.0941 102.562 79.9682 102.597 79.8272C102.65 79.5416 102.629 79.2472 102.534 78.9725L102.545 78.9762Z" fill="#020202"/>
<path d="M114.218 95.0262C113.917 94.283 113.211 90.957 113.043 90.1321C112.876 89.3071 112.323 85.97 112.152 85.1227C112.152 85.0744 112.207 85.0484 112.215 85.0967C112.397 85.9328 113.218 89.229 113.393 90.054C113.567 90.879 114.229 94.1863 114.259 95.015C114.261 95.018 114.262 95.0214 114.262 95.0249C114.263 95.0284 114.262 95.0319 114.261 95.0352C114.26 95.0385 114.258 95.0415 114.255 95.0438C114.252 95.0462 114.249 95.0479 114.246 95.0488C114.243 95.0498 114.239 95.0499 114.235 95.0492C114.232 95.0484 114.229 95.0469 114.226 95.0447C114.223 95.0425 114.221 95.0397 114.22 95.0364C114.218 95.0332 114.218 95.0297 114.218 95.0262Z" fill="#263238"/>
<path d="M111.921 96.5684C110.78 96.6316 109.639 96.6576 108.495 96.6538C107.35 96.6586 106.205 96.5929 105.068 96.4569C104.487 96.3988 103.919 96.2482 103.385 96.011C102.904 95.6701 102.486 95.2475 102.151 94.7623C101.475 93.8336 100.864 92.8588 100.323 91.8452C99.2081 89.8459 98.2531 87.7574 97.3129 85.6838C96.3727 83.6102 95.5292 81.4809 94.7488 79.3329C95.6964 81.4103 96.6329 83.4913 97.6028 85.5538C98.5727 87.6162 99.5649 89.6712 100.628 91.6817C101.157 92.6869 101.741 93.662 102.378 94.6025C102.676 95.0697 103.053 95.481 103.493 95.8177C104 96.0509 104.54 96.2026 105.094 96.2674C107.359 96.5391 109.641 96.6397 111.921 96.5684Z" fill="#263238"/>
<path d="M95.4809 81.1464C95.3273 80.9918 95.1891 80.8225 95.0684 80.641C94.9419 80.4642 94.8441 80.2686 94.7786 80.0613C94.8343 80.1542 94.9012 80.2397 94.9607 80.3252L95.1465 80.589C95.268 80.7686 95.3796 80.9547 95.4809 81.1464Z" fill="#263238"/>
<path d="M101.338 77.6979C102.282 78.6455 103.121 79.6823 103.995 80.6708C104.868 81.6593 105.708 82.7147 106.596 83.7032L106.93 84.0748C106.986 84.1342 107.042 84.1937 107.101 84.2494C107.161 84.3052 107.157 84.2977 107.183 84.32C107.209 84.3423 107.183 84.32 107.183 84.32H107.22C107.506 84.32 107.863 84.2569 108.183 84.2123L110.156 83.9224C111.475 83.7292 112.791 83.5285 114.114 83.3464L114.166 83.6734L114.088 83.3538C112.783 83.6325 111.486 83.8815 110.163 84.1194C109.509 84.2383 108.852 84.3423 108.19 84.4464C107.852 84.491 107.547 84.5504 107.168 84.5653C107.14 84.5686 107.111 84.5686 107.083 84.5653C107.048 84.5536 107.015 84.536 106.986 84.5133C106.945 84.4798 106.908 84.4501 106.878 84.4204C106.849 84.3906 106.756 84.3014 106.696 84.2383C106.577 84.1156 106.462 83.993 106.354 83.8667C105.477 82.8559 104.63 81.8302 103.801 80.786L102.557 79.2215C102.177 78.7347 101.776 78.1996 101.338 77.6979Z" fill="#263238"/>
<path d="M101.828 77.813C101.962 77.9849 102.079 78.169 102.177 78.363C102.286 78.5535 102.361 78.7608 102.4 78.9762C102.356 78.8759 102.296 78.783 102.248 78.6901L102.096 78.4039C101.996 78.2119 101.907 78.0146 101.828 77.813Z" fill="#263238"/>
<path d="M57.2568 174.986C57.1199 171.508 57.167 168.025 57.398 164.551C57.9123 157.39 59.0059 150.283 60.6682 143.299C61.5787 139.367 62.7009 135.495 63.8715 131.638C63.905 131.522 64.0908 131.556 64.0573 131.675C60.4415 145.291 57.4761 159.341 57.6804 173.496C57.7362 177.457 58.197 181.348 58.5723 185.284C58.5723 185.388 58.4088 185.432 58.3865 185.321C57.6396 181.954 57.4129 178.424 57.2568 174.986Z" fill="#52B5F9"/>
<path d="M64.0573 131.675C64.0573 131.675 69.5386 145.581 68.3123 148.847C67.086 152.113 64.5553 152.812 64.5553 152.812C64.5553 152.812 67.8998 157.599 65.5661 162.102C63.2323 166.606 58.0186 166.38 57.673 171.467C57.673 171.449 57.3831 150.174 64.0573 131.675Z" fill="#52B5F9"/>
<path d="M58.2676 162.664C58.2602 162.641 58.2602 162.616 58.2676 162.593C58.9868 153.1 60.7693 143.717 63.5817 134.622C63.5817 134.596 63.6337 134.603 63.6263 134.622C62.5412 138.687 61.5824 142.775 60.75 146.885C61.482 146.189 62.3761 145.687 63.3513 145.424C63.3699 145.424 63.381 145.447 63.3513 145.454C62.3218 145.833 61.3971 146.45 60.6534 147.256C60.4936 148.063 60.3338 148.869 60.1851 149.676C61.4115 148.308 63.1097 147.632 64.808 146.985C64.8129 146.985 64.8177 146.987 64.8211 146.991C64.8246 146.994 64.8266 146.999 64.8266 147.004C64.8266 147.009 64.8246 147.013 64.8211 147.017C64.8177 147.02 64.8129 147.022 64.808 147.022C63.0391 147.743 61.2777 148.672 60.0774 150.196C59.6612 152.505 59.2895 154.82 58.9625 157.141C59.8488 156.219 60.9834 155.574 62.229 155.283C62.2699 155.283 62.2885 155.332 62.2513 155.343C60.9643 155.714 59.8128 156.451 58.9365 157.465C58.9304 157.466 58.924 157.466 58.9179 157.465C58.8089 158.282 58.7061 159.1 58.6095 159.917C59.294 159.338 60.0668 158.873 60.8986 158.539C60.9209 158.539 60.9321 158.565 60.8986 158.572C60.0511 158.94 59.275 159.455 58.6058 160.092H58.5761C58.4869 160.869 58.394 161.649 58.3159 162.429C59.5493 160.938 61.1504 159.794 62.9611 159.111C62.9982 159.111 63.0168 159.152 62.9611 159.167C61.1735 159.955 59.6029 161.164 58.3828 162.69C58.3699 162.707 58.3518 162.72 58.3312 162.727C58.3105 162.733 58.2883 162.733 58.2676 162.727C58.1487 163.923 58.0446 165.121 57.9555 166.32C57.9555 166.339 57.9294 166.339 57.9294 166.32C58.0855 165.12 58.1561 163.894 58.2676 162.664Z" fill="#263238"/>
<path d="M62.6711 144.061C63.6612 143.442 64.7938 143.089 65.9599 143.035C65.9896 143.035 65.9896 143.072 65.9599 143.076C64.8339 143.285 63.7405 143.642 62.7083 144.139C62.6986 144.141 62.6885 144.139 62.6796 144.135C62.6707 144.13 62.6636 144.123 62.6594 144.114C62.6551 144.105 62.6539 144.095 62.6561 144.085C62.6582 144.076 62.6635 144.067 62.6711 144.061Z" fill="#263238"/>
<path d="M62.006 158.78C62.7685 158.344 63.6072 158.056 64.4772 157.933C64.5069 157.933 64.5069 157.978 64.4772 157.981C63.6257 158.151 62.8025 158.44 62.032 158.84C62.0023 158.855 61.9725 158.799 62.006 158.78Z" fill="#263238"/>
<path d="M42.8568 149.074C45.173 150.676 47.2999 152.536 49.1966 154.618C51.1575 156.819 52.672 159.38 53.6559 162.158C55.7384 167.948 56.8581 174.04 56.9707 180.193C57.0401 183.6 56.7121 187.003 55.9934 190.334C55.9871 190.357 55.9723 190.377 55.9519 190.39C55.9315 190.403 55.9071 190.408 55.8833 190.404C55.8596 190.4 55.8383 190.387 55.8236 190.368C55.8088 190.348 55.8018 190.325 55.8039 190.3C56.6977 184.422 56.6639 178.439 55.7035 172.571C54.7633 166.818 53.2843 160.56 49.6276 155.885C47.6395 153.34 45.1683 151.337 42.7008 149.267C42.5484 149.159 42.7231 148.981 42.8568 149.074Z" fill="#52B5F9"/>
<path d="M56.1494 176.049C54.8307 173.916 53.2804 171.936 51.5265 170.144C48.7877 167.405 46.48 165.458 46.1232 163.645C45.7665 161.831 48.8695 160.497 48.8695 160.497C48.8695 160.497 45.0753 161.177 44.0385 159.587C43.0017 157.996 42.5 148.78 42.5 148.78C42.5 148.78 49.3971 153.704 52.6116 160.609C55.8261 167.513 56.1494 176.049 56.1494 176.049Z" fill="#52B5F9"/>
<path d="M44.9639 157.424C45.418 157.359 45.8777 157.343 46.3352 157.375C46.3462 157.379 46.3558 157.385 46.3628 157.394C46.3697 157.403 46.3734 157.414 46.3734 157.426C46.3734 157.437 46.3697 157.448 46.3628 157.457C46.3558 157.466 46.3462 157.473 46.3352 157.476C45.8818 157.476 45.4247 157.454 44.9713 157.476C44.9663 157.474 44.9618 157.471 44.9583 157.467C44.9549 157.462 44.9527 157.457 44.952 157.452C44.9512 157.447 44.9519 157.441 44.954 157.436C44.9561 157.431 44.9595 157.427 44.9639 157.424Z" fill="#263238"/>
<path d="M49.9287 166.365C50.6565 166.384 51.3757 166.528 52.0543 166.792C52.0543 166.792 52.0543 166.829 52.0543 166.822C51.3519 166.655 50.6422 166.588 49.9324 166.473C49.9204 166.47 49.9096 166.463 49.9017 166.454C49.8939 166.444 49.8894 166.432 49.8889 166.42C49.8885 166.408 49.8922 166.396 49.8994 166.386C49.9066 166.376 49.9169 166.368 49.9287 166.365Z" fill="#263238"/>
<path d="M51.4186 163.277C51.7216 163.274 52.024 163.302 52.3217 163.359C52.3514 163.359 52.3477 163.411 52.3217 163.414C52.0187 163.429 51.715 163.414 51.4149 163.37C51.4049 163.366 51.3962 163.36 51.3902 163.351C51.3842 163.343 51.3812 163.332 51.3816 163.322C51.3821 163.311 51.3859 163.301 51.3926 163.293C51.3992 163.285 51.4084 163.279 51.4186 163.277Z" fill="#263238"/>
<path d="M76.3652 158.858C74.1237 159.614 71.9756 160.623 69.9623 161.865C67.8692 163.195 66.0543 164.919 64.6185 166.941C61.6007 171.15 59.2922 175.825 57.7845 180.78C56.9396 183.521 56.4183 186.353 56.2312 189.215C56.2352 189.234 56.2452 189.25 56.2598 189.262C56.2743 189.273 56.2924 189.28 56.3111 189.28C56.3298 189.28 56.3479 189.273 56.3624 189.262C56.3769 189.25 56.387 189.234 56.391 189.215C57.027 184.251 58.4377 179.417 60.5716 174.89C62.6638 170.453 65.306 165.729 69.3454 162.794C71.5417 161.192 74.0166 160.144 76.4804 159.037C76.5919 158.996 76.5027 158.81 76.3652 158.858Z" fill="#52B5F9"/>
<path d="M59.3787 177.617C60.9394 176.195 62.6517 174.949 64.4846 173.901C67.3349 172.318 69.6538 171.278 70.3598 169.891C71.0659 168.505 68.8734 166.71 68.8734 166.71C68.8734 166.71 71.7868 168.141 72.9946 167.082C74.2023 166.023 76.7367 158.698 76.7367 158.698C76.7367 158.698 70.0068 161.092 65.8113 165.952C61.6158 170.813 59.3787 177.617 59.3787 177.617Z" fill="#52B5F9"/>
<path d="M70.8205 163.176C71.1225 163.153 71.4263 163.17 71.7236 163.228C71.757 163.228 71.7459 163.284 71.7236 163.284C71.4263 163.251 71.1364 163.262 70.8391 163.254C70.8297 163.255 70.8204 163.252 70.8128 163.246C70.8053 163.24 70.7999 163.232 70.7977 163.223C70.7955 163.214 70.7966 163.204 70.8008 163.196C70.8049 163.187 70.8119 163.18 70.8205 163.176Z" fill="#263238"/>
<path d="M50.709 198.483H65.882L63.7192 182.634L63.1655 178.572H53.4255L52.8755 182.634L50.709 198.483Z" fill="#455B64"/>
<path d="M52.8755 182.634H63.7192L63.1655 178.572H53.4255L52.8755 182.634Z" fill="#263238"/>
<path d="M52.0357 180.605H64.5627V177.164H52.0357V180.605Z" fill="#455B64"/>
<path d="M131.52 49.5816C131.518 51.1088 131.092 52.6054 130.29 53.9051C129.488 55.2047 128.341 56.2565 126.977 56.9435C125.613 57.6305 124.085 57.9258 122.564 57.7965C121.042 57.6672 119.586 57.1184 118.357 56.2112L114.314 57.2442L115.998 53.4761C115.405 52.3692 115.073 51.1418 115.026 49.8872C114.979 48.6327 115.219 47.3839 115.727 46.236C116.236 45.088 116.999 44.0711 117.96 43.2625C118.92 42.454 120.052 41.875 121.27 41.5698C122.488 41.2646 123.759 41.241 124.987 41.501C126.216 41.7609 127.368 42.2975 128.358 43.07C129.348 43.8425 130.148 44.8304 130.699 45.9588C131.249 47.0871 131.535 48.3261 131.535 49.5816H131.52Z" fill="white" fill-opacity="0.87"/>
<path d="M131.52 49.5816C131.519 51.1116 131.097 52.6118 130.301 53.9183C130.101 54.2438 129.882 54.5566 129.643 54.8548C129.399 55.1467 129.136 55.4223 128.855 55.6798C127.73 56.7262 126.339 57.4435 124.835 57.7534C124.458 57.8262 124.077 57.8734 123.694 57.8946C123.312 57.9243 122.928 57.9243 122.545 57.8946C121.001 57.7779 119.519 57.235 118.264 56.3264L118.376 56.3487L114.34 57.4078L114.013 57.4969L114.151 57.1848L115.819 53.4129V53.569C115.213 52.4397 114.874 51.1861 114.83 49.905C114.785 48.624 115.036 47.3499 115.563 46.1813C116.09 45.0184 116.872 43.9895 117.852 43.1712C118.833 42.3655 119.984 41.7919 121.218 41.4933C122.453 41.1947 123.738 41.1789 124.98 41.447C126.209 41.7281 127.361 42.2804 128.35 43.0635C129.337 43.8395 130.135 44.8293 130.684 45.9583C131.233 47.0873 131.519 48.3262 131.52 49.5816ZM131.52 49.5816C131.519 47.6937 130.865 45.8643 129.669 44.4039C128.473 42.9434 126.808 41.942 124.957 41.5696C123.74 41.3272 122.483 41.3653 121.282 41.6811C120.085 41.9894 118.975 42.5693 118.038 43.3756C117.112 44.1797 116.372 45.1749 115.868 46.2928C115.374 47.4177 115.143 48.6402 115.191 49.8677C115.241 51.0943 115.565 52.2942 116.139 53.3795L116.18 53.4575L116.146 53.5355L114.448 57.2963L114.27 57.0696L118.32 56.0699L118.383 56.0514L118.435 56.0885C119.636 57.0033 121.069 57.5633 122.571 57.705C122.942 57.7416 123.315 57.7491 123.686 57.7273C124.821 57.6886 125.934 57.406 126.949 56.8987C127.628 56.5693 128.254 56.141 128.807 55.6277C129.375 55.1221 129.865 54.5347 130.26 53.8849C131.067 52.5933 131.503 51.1045 131.52 49.5816Z" fill="#263238"/>
<path d="M123.835 50.4772V51.3876C123.837 51.478 123.821 51.5678 123.787 51.6517C123.754 51.7355 123.703 51.8117 123.639 51.8756C123.575 51.9395 123.499 51.9898 123.415 52.0235C123.332 52.0571 123.242 52.0734 123.151 52.0714C122.97 52.0714 122.795 51.9995 122.667 51.8713C122.538 51.7432 122.465 51.5693 122.464 51.3876V49.9309C122.464 49.9309 122.464 49.9309 122.464 49.9049C122.464 49.8789 122.464 49.9049 122.464 49.8751C122.469 49.6949 122.544 49.5237 122.672 49.3966C122.8 49.2695 122.971 49.196 123.151 49.1914C123.363 49.2017 123.575 49.1689 123.775 49.0948C123.974 49.0208 124.155 48.907 124.309 48.7606C124.463 48.6141 124.585 48.4379 124.669 48.2427C124.753 48.0475 124.796 47.8374 124.796 47.625C124.796 47.4127 124.753 47.2025 124.669 47.0073C124.585 46.8121 124.463 46.6359 124.309 46.4895C124.155 46.343 123.974 46.2293 123.775 46.1552C123.575 46.0812 123.363 46.0483 123.151 46.0587C122.879 46.0572 122.612 46.1275 122.375 46.2626C122.139 46.3976 121.943 46.5927 121.806 46.8279C121.761 46.9075 121.7 46.9772 121.627 47.033C121.555 47.0888 121.471 47.1295 121.383 47.1526C121.294 47.1758 121.202 47.1811 121.111 47.1681C121.02 47.1551 120.933 47.1241 120.855 47.0769C120.778 47.031 120.71 46.9703 120.657 46.8983C120.603 46.8263 120.565 46.7445 120.543 46.6574C120.521 46.5704 120.517 46.4799 120.53 46.3911C120.543 46.3024 120.574 46.2172 120.621 46.1404C120.865 45.7192 121.21 45.3652 121.625 45.1105C122.04 44.8557 122.512 44.708 122.998 44.6807C123.485 44.6534 123.97 44.7473 124.411 44.9541C124.852 45.1608 125.235 45.4739 125.525 45.8651C125.815 46.2564 126.003 46.7136 126.073 47.1956C126.142 47.6776 126.091 48.1694 125.923 48.6267C125.756 49.0839 125.477 49.4925 125.113 49.8155C124.748 50.1385 124.309 50.3658 123.835 50.4772ZM123.835 53.543V53.792C123.836 53.8817 123.819 53.9707 123.785 54.0537C123.751 54.1367 123.7 54.212 123.637 54.2751C123.573 54.3382 123.497 54.3878 123.414 54.421C123.33 54.4542 123.241 54.4703 123.151 54.4683C122.969 54.4683 122.794 54.3959 122.665 54.2669C122.536 54.138 122.464 53.9631 122.464 53.7808V53.5318C122.467 53.3504 122.54 53.1772 122.668 53.0489C122.797 52.9206 122.97 52.8472 123.151 52.8443C123.243 52.8433 123.333 52.8608 123.418 52.8957C123.502 52.9306 123.579 52.9823 123.643 53.0476C123.706 53.1128 123.756 53.1904 123.79 53.2755C123.823 53.3607 123.838 53.4517 123.835 53.543Z" fill="#52B5F9"/>
</g>
<defs>
<clipPath id="clip0_3915_68948">
<rect width="155" height="157.419" fill="white" transform="translate(42.5 41.25)"/>
</clipPath>
</defs>
</svg>
