<svg width="40" height="40" viewBox="0 0 40 40" fill="none" xmlns="http://www.w3.org/2000/svg">
<path d="M20 36.6667C10.8334 36.6667 3.33337 29.1667 3.33337 20C3.33337 10.8334 10.8334 3.33337 20 3.33337C29.1667 3.33337 36.6667 10.8334 36.6667 20C36.6667 29.1667 29.1667 36.6667 20 36.6667ZM16.1667 32.8334C14.5 29.3334 13.5 25.5 13.3334 21.6667H6.66671C7.50004 26.8334 11.1667 31.3334 16.1667 32.8334ZM16.6667 21.6667C17 25.6667 18 29.5 20 33C22 29.5 23 25.6667 23.3334 21.6667H16.6667ZM33.1667 21.6667H26.5C26.3334 25.5 25.3334 29.3334 23.6667 32.8334C28.8334 31.3334 32.5 26.8334 33.1667 21.6667ZM6.83337 18.3334H13.5C13.6667 14.5 14.6667 10.6667 16.3334 7.16671C11.1667 8.66671 7.50004 13.1667 6.83337 18.3334ZM16.6667 18.3334H23.3334C23.1667 14.3334 22 10.5 20 7.00004C18 10.5 17 14.3334 16.6667 18.3334ZM23.8334 7.16671C25.5 10.6667 26.5 14.5 26.6667 18.3334H33.3334C32.5 13.1667 28.8334 8.66671 23.8334 7.16671Z" fill="white" fill-opacity="0.38"/>
</svg>
