<svg width="40" height="40" viewBox="0 0 40 40" fill="none" xmlns="http://www.w3.org/2000/svg">
<g clip-path="url(#clip0_4057_2648)">
<path d="M37.0575 20.9149H31.0361V15.5556C31.0361 13.7824 29.6859 12.3189 27.9598 12.1384V9.53225C27.9598 7.90842 26.6387 6.5874 25.0149 6.5874H2.94492C1.32109 6.5874 0 7.9085 0 9.53225V22.9697C0 24.5935 1.32109 25.9145 2.94492 25.9145H8.5807L7.96336 29.1949H5.73563C5.04531 29.1949 4.48563 29.7545 4.48563 30.4449C4.48563 31.1353 5.04531 31.6949 5.73563 31.6949H14.3855C14.9805 32.7207 16.0902 33.4125 17.3591 33.4125H37.0576C38.6801 33.4125 40.0001 32.0925 40.0001 30.47V23.8573C40 22.2349 38.68 20.9149 37.0575 20.9149ZM2.5 22.9697V9.53225C2.5 9.29115 2.70375 9.0874 2.94492 9.0874H25.0148C25.2559 9.0874 25.4597 9.29115 25.4597 9.53225V12.1195H17.359C15.4643 12.1195 13.9229 13.6609 13.9229 15.5556V23.4145H2.94492C2.70375 23.4145 2.5 23.2108 2.5 22.9697ZM11.1246 25.9145H13.9229V29.1949H10.5073L11.1246 25.9145ZM16.4229 29.9765V15.5556C16.4229 15.0394 16.8428 14.6195 17.359 14.6195H27.6C28.1162 14.6195 28.5361 15.0394 28.5361 15.5556V20.9149H22.992C21.3695 20.9149 20.0495 22.2349 20.0495 23.8574V30.4701C20.0495 30.6204 20.061 30.7682 20.0829 30.9126H17.3591C16.8428 30.9126 16.4229 30.4926 16.4229 29.9765ZM37.5 30.4701C37.5 30.7099 37.2973 30.9126 37.0575 30.9126H22.992C22.7522 30.9126 22.5495 30.7099 22.5495 30.4701V23.8574C22.5495 23.6176 22.7522 23.4149 22.992 23.4149H37.0575C37.2973 23.4149 37.5 23.6176 37.5 23.8574V30.4701ZM37.0864 27.1637C37.0864 27.7985 36.5718 28.3131 35.937 28.3131C35.3023 28.3131 34.7877 27.7985 34.7877 27.1637C34.7877 26.529 35.3023 26.0144 35.937 26.0144C36.5718 26.0144 37.0864 26.529 37.0864 27.1637Z" fill="white" fill-opacity="0.38"/>
</g>
<defs>
<clipPath id="clip0_4057_2648">
<rect width="40" height="40" fill="white"/>
</clipPath>
</defs>
</svg>
