<svg width="40" height="40" viewBox="0 0 40 40" fill="none" xmlns="http://www.w3.org/2000/svg">
<g clip-path="url(#clip0_3915_64365)">
<path fill-rule="evenodd" clip-rule="evenodd" d="M36.058 17.7939H25.7427V8.5316C25.7427 5.92511 23.622 3.80457 21.0155 3.80457H4.72703C2.12055 3.80457 0 5.92511 0 8.5316V31.4685C0 34.075 2.12055 36.1955 4.72703 36.1955H36.058C38.2316 36.1955 40 34.4271 40 32.2535V21.7359C40 19.5622 38.2316 17.7939 36.058 17.7939ZM2.5 31.4685V8.5316C2.5 7.30363 3.49906 6.30457 4.72703 6.30457H21.0155C22.2436 6.30457 23.2427 7.30363 23.2427 8.5316V17.7939H13.6865C11.5129 17.7939 9.74453 19.5622 9.74453 21.7359V32.2535C9.74453 32.7625 9.8425 33.2486 10.0189 33.6955H4.72703C3.49906 33.6955 2.5 32.6964 2.5 31.4685ZM37.5 32.2535C37.5 33.0486 36.8532 33.6955 36.058 33.6955H13.6866H13.6865C12.8914 33.6955 12.2445 33.0486 12.2445 32.2535V21.7359C12.2445 20.9407 12.8914 20.2939 13.6865 20.2939H36.058C36.8532 20.2939 37.5 20.9407 37.5 21.7359V32.2535ZM35.8384 26.9947C35.8384 27.8577 35.1387 28.5572 34.2759 28.5572C33.4129 28.5572 32.7134 27.8577 32.7134 26.9947C32.7134 26.1318 33.413 25.4322 34.2759 25.4322C35.1388 25.4321 35.8384 26.1318 35.8384 26.9947Z" fill="white" fill-opacity="0.38"/>
</g>
<defs>
<clipPath id="clip0_3915_64365">
<rect width="40" height="40" fill="white"/>
</clipPath>
</defs>
</svg>
