<svg width="60" height="16" viewBox="0 0 60 16" fill="none" xmlns="http://www.w3.org/2000/svg">
<path d="M0 8C0 3.58172 3.58172 0 8 0H60V8C60 12.4183 56.4183 16 52 16H0V8Z" fill="url(#paint0_linear_7608_148876)"/>
<path d="M13.4762 11V5.18182H15.658C16.105 5.18182 16.48 5.26515 16.783 5.43182C17.088 5.59848 17.3181 5.82765 17.4734 6.11932C17.6306 6.40909 17.7092 6.73864 17.7092 7.10795C17.7092 7.48106 17.6306 7.8125 17.4734 8.10227C17.3162 8.39205 17.0842 8.62027 16.7773 8.78693C16.4705 8.9517 16.0927 9.03409 15.6438 9.03409H14.1978V8.16761H15.5018C15.7631 8.16761 15.9772 8.12216 16.1438 8.03125C16.3105 7.94034 16.4336 7.81534 16.5131 7.65625C16.5946 7.49716 16.6353 7.31439 16.6353 7.10795C16.6353 6.90152 16.5946 6.7197 16.5131 6.5625C16.4336 6.4053 16.3095 6.28314 16.141 6.19602C15.9743 6.10701 15.7594 6.0625 15.4961 6.0625H14.5302V11H13.4762ZM18.5792 11V6.63636H19.5763V7.36364H19.6218C19.7013 7.11174 19.8377 6.91761 20.0309 6.78125C20.226 6.64299 20.4485 6.57386 20.6985 6.57386C20.7553 6.57386 20.8188 6.5767 20.8888 6.58239C20.9608 6.58617 21.0205 6.5928 21.0678 6.60227V7.5483C21.0243 7.53314 20.9551 7.51989 20.8604 7.50852C20.7676 7.49527 20.6777 7.48864 20.5906 7.48864C20.4031 7.48864 20.2345 7.52936 20.0849 7.6108C19.9371 7.69034 19.8207 7.80114 19.7354 7.94318C19.6502 8.08523 19.6076 8.24905 19.6076 8.43466V11H18.5792ZM23.5032 11.0852C23.0657 11.0852 22.6879 10.9943 22.3697 10.8125C22.0534 10.6288 21.81 10.3693 21.6396 10.0341C21.4691 9.69697 21.3839 9.30019 21.3839 8.84375C21.3839 8.39489 21.4691 8.00095 21.6396 7.66193C21.8119 7.32102 22.0524 7.05587 22.3612 6.86648C22.6699 6.67519 23.0326 6.57955 23.4492 6.57955C23.7182 6.57955 23.9719 6.62311 24.2106 6.71023C24.4511 6.79545 24.6632 6.92803 24.8469 7.10795C25.0326 7.28788 25.1784 7.51705 25.2844 7.79545C25.3905 8.07197 25.4435 8.40152 25.4435 8.78409V9.09943H21.8668V8.40625H24.4577C24.4558 8.20928 24.4132 8.03409 24.3299 7.88068C24.2466 7.72538 24.1301 7.60322 23.9805 7.5142C23.8327 7.42519 23.6604 7.38068 23.4634 7.38068C23.2532 7.38068 23.0685 7.43182 22.9094 7.53409C22.7504 7.63447 22.6263 7.76705 22.5373 7.93182C22.4502 8.0947 22.4057 8.27367 22.4038 8.46875V9.07386C22.4038 9.32765 22.4502 9.54545 22.543 9.72727C22.6358 9.9072 22.7655 10.0455 22.9322 10.142C23.0988 10.2367 23.2939 10.2841 23.5174 10.2841C23.667 10.2841 23.8024 10.2633 23.9237 10.2216C24.0449 10.178 24.15 10.1146 24.239 10.0312C24.328 9.94792 24.3952 9.8447 24.4407 9.72159L25.4009 9.82955C25.3403 10.0833 25.2248 10.3049 25.0543 10.4943C24.8858 10.6818 24.6699 10.8277 24.4066 10.9318C24.1433 11.0341 23.8422 11.0852 23.5032 11.0852ZM26.3136 11V6.63636H27.2965V7.37784H27.3477C27.4386 7.12784 27.5891 6.93277 27.7994 6.79261C28.0096 6.65057 28.2605 6.57955 28.5522 6.57955C28.8477 6.57955 29.0967 6.65152 29.2994 6.79545C29.5039 6.9375 29.6478 7.13163 29.7312 7.37784H29.7766C29.8732 7.13542 30.0361 6.94223 30.2653 6.7983C30.4963 6.65246 30.77 6.57955 31.0863 6.57955C31.4878 6.57955 31.8155 6.70644 32.0692 6.96023C32.323 7.21402 32.4499 7.58428 32.4499 8.07102V11H31.4187V8.23011C31.4187 7.95928 31.3467 7.76136 31.2028 7.63636C31.0588 7.50947 30.8827 7.44602 30.6744 7.44602C30.4263 7.44602 30.2321 7.52367 30.092 7.67898C29.9537 7.83239 29.8846 8.0322 29.8846 8.27841V11H28.8761V8.1875C28.8761 7.96212 28.8079 7.7822 28.6715 7.64773C28.5371 7.51326 28.3609 7.44602 28.1431 7.44602C27.9954 7.44602 27.8609 7.4839 27.7397 7.55966C27.6185 7.63352 27.5219 7.73864 27.4499 7.875C27.378 8.00947 27.342 8.16667 27.342 8.34659V11H26.3136ZM33.4933 11V6.63636H34.5217V11H33.4933ZM34.0103 6.01705C33.8474 6.01705 33.7073 5.96307 33.5898 5.85511C33.4724 5.74526 33.4137 5.61364 33.4137 5.46023C33.4137 5.30492 33.4724 5.1733 33.5898 5.06534C33.7073 4.95549 33.8474 4.90057 34.0103 4.90057C34.1751 4.90057 34.3152 4.95549 34.4308 5.06534C34.5482 5.1733 34.6069 5.30492 34.6069 5.46023C34.6069 5.61364 34.5482 5.74526 34.4308 5.85511C34.3152 5.96307 34.1751 6.01705 34.0103 6.01705ZM38.3604 9.16477V6.63636H39.3888V11H38.3917V10.2244H38.3462C38.2478 10.4687 38.0858 10.6686 37.8604 10.8239C37.637 10.9792 37.3614 11.0568 37.0337 11.0568C36.7478 11.0568 36.4949 10.9934 36.2752 10.8665C36.0574 10.7377 35.887 10.5511 35.7638 10.3068C35.6407 10.0606 35.5792 9.76326 35.5792 9.41477V6.63636H36.6076V9.25568C36.6076 9.5322 36.6834 9.75189 36.8349 9.91477C36.9864 10.0777 37.1853 10.1591 37.4315 10.1591C37.583 10.1591 37.7298 10.1222 37.8718 10.0483C38.0138 9.97443 38.1303 9.86458 38.2212 9.71875C38.314 9.57102 38.3604 9.38636 38.3604 9.16477ZM40.4464 11V6.63636H41.4293V7.37784H41.4805C41.5714 7.12784 41.7219 6.93277 41.9322 6.79261C42.1424 6.65057 42.3933 6.57955 42.685 6.57955C42.9805 6.57955 43.2295 6.65152 43.4322 6.79545C43.6367 6.9375 43.7807 7.13163 43.864 7.37784H43.9094C44.006 7.13542 44.1689 6.94223 44.3981 6.7983C44.6291 6.65246 44.9028 6.57955 45.2191 6.57955C45.6206 6.57955 45.9483 6.70644 46.2021 6.96023C46.4558 7.21402 46.5827 7.58428 46.5827 8.07102V11H45.5515V8.23011C45.5515 7.95928 45.4795 7.76136 45.3356 7.63636C45.1916 7.50947 45.0155 7.44602 44.8072 7.44602C44.5591 7.44602 44.3649 7.52367 44.2248 7.67898C44.0865 7.83239 44.0174 8.0322 44.0174 8.27841V11H43.0089V8.1875C43.0089 7.96212 42.9407 7.7822 42.8043 7.64773C42.6699 7.51326 42.4937 7.44602 42.2759 7.44602C42.1282 7.44602 41.9937 7.4839 41.8725 7.55966C41.7513 7.63352 41.6547 7.73864 41.5827 7.875C41.5108 8.00947 41.4748 8.16667 41.4748 8.34659V11H40.4464Z" fill="#000E2B"/>
<defs>
<linearGradient id="paint0_linear_7608_148876" x1="30" y1="0" x2="30" y2="16" gradientUnits="userSpaceOnUse">
<stop stop-color="#FFD600"/>
<stop offset="1" stop-color="#FFAD00"/>
</linearGradient>
</defs>
</svg>
