<svg width="61" height="16" viewBox="0 0 61 16" fill="none" xmlns="http://www.w3.org/2000/svg">
<path d="M0.666687 8C0.666687 3.58172 4.24841 0 8.66669 0H60.6667V8C60.6667 12.4183 57.085 16 52.6667 16H0.666687V8Z" fill="url(#paint0_linear_7608_148875)"/>
<path d="M11.4515 11V5.18182H13.6333C14.0803 5.18182 14.4553 5.26515 14.7583 5.43182C15.0632 5.59848 15.2933 5.82765 15.4486 6.11932C15.6058 6.40909 15.6844 6.73864 15.6844 7.10795C15.6844 7.48106 15.6058 7.8125 15.4486 8.10227C15.2915 8.39205 15.0594 8.62027 14.7526 8.78693C14.4458 8.9517 14.068 9.03409 13.6191 9.03409H12.1731V8.16761H13.4771C13.7384 8.16761 13.9524 8.12216 14.1191 8.03125C14.2858 7.94034 14.4089 7.81534 14.4884 7.65625C14.5699 7.49716 14.6106 7.31439 14.6106 7.10795C14.6106 6.90152 14.5699 6.7197 14.4884 6.5625C14.4089 6.4053 14.2848 6.28314 14.1163 6.19602C13.9496 6.10701 13.7346 6.0625 13.4714 6.0625H12.5055V11H11.4515ZM16.5545 11V6.63636H17.5516V7.36364H17.5971C17.6766 7.11174 17.813 6.91761 18.0062 6.78125C18.2013 6.64299 18.4238 6.57386 18.6738 6.57386C18.7306 6.57386 18.7941 6.5767 18.8641 6.58239C18.9361 6.58617 18.9958 6.5928 19.0431 6.60227V7.5483C18.9995 7.53314 18.9304 7.51989 18.8357 7.50852C18.7429 7.49527 18.653 7.48864 18.5658 7.48864C18.3783 7.48864 18.2098 7.52936 18.0602 7.6108C17.9124 7.69034 17.7959 7.80114 17.7107 7.94318C17.6255 8.08523 17.5829 8.24905 17.5829 8.43466V11H16.5545ZM21.4785 11.0852C21.041 11.0852 20.6631 10.9943 20.345 10.8125C20.0287 10.6288 19.7853 10.3693 19.6148 10.0341C19.4444 9.69697 19.3592 9.30019 19.3592 8.84375C19.3592 8.39489 19.4444 8.00095 19.6148 7.66193C19.7872 7.32102 20.0277 7.05587 20.3364 6.86648C20.6451 6.67519 21.0078 6.57955 21.4245 6.57955C21.6934 6.57955 21.9472 6.62311 22.1859 6.71023C22.4264 6.79545 22.6385 6.92803 22.8222 7.10795C23.0078 7.28788 23.1537 7.51705 23.2597 7.79545C23.3658 8.07197 23.4188 8.40152 23.4188 8.78409V9.09943H19.8421V8.40625H22.433C22.4311 8.20928 22.3885 8.03409 22.3052 7.88068C22.2218 7.72538 22.1054 7.60322 21.9557 7.5142C21.808 7.42519 21.6357 7.38068 21.4387 7.38068C21.2285 7.38068 21.0438 7.43182 20.8847 7.53409C20.7256 7.63447 20.6016 7.76705 20.5126 7.93182C20.4254 8.0947 20.3809 8.27367 20.379 8.46875V9.07386C20.379 9.32765 20.4254 9.54545 20.5182 9.72727C20.6111 9.9072 20.7408 10.0455 20.9075 10.142C21.0741 10.2367 21.2692 10.2841 21.4927 10.2841C21.6423 10.2841 21.7777 10.2633 21.8989 10.2216C22.0201 10.178 22.1253 10.1146 22.2143 10.0312C22.3033 9.94792 22.3705 9.8447 22.416 9.72159L23.3762 9.82955C23.3156 10.0833 23.2001 10.3049 23.0296 10.4943C22.8611 10.6818 22.6451 10.8277 22.3819 10.9318C22.1186 11.0341 21.8175 11.0852 21.4785 11.0852ZM24.2888 11V6.63636H25.2718V7.37784H25.3229C25.4138 7.12784 25.5644 6.93277 25.7746 6.79261C25.9849 6.65057 26.2358 6.57955 26.5275 6.57955C26.8229 6.57955 27.072 6.65152 27.2746 6.79545C27.4792 6.9375 27.6231 7.13163 27.7065 7.37784H27.7519C27.8485 7.13542 28.0114 6.94223 28.2406 6.7983C28.4716 6.65246 28.7453 6.57955 29.0616 6.57955C29.4631 6.57955 29.7907 6.70644 30.0445 6.96023C30.2983 7.21402 30.4252 7.58428 30.4252 8.07102V11H29.394V8.23011C29.394 7.95928 29.322 7.76136 29.1781 7.63636C29.0341 7.50947 28.858 7.44602 28.6496 7.44602C28.4015 7.44602 28.2074 7.52367 28.0673 7.67898C27.929 7.83239 27.8599 8.0322 27.8599 8.27841V11H26.8513V8.1875C26.8513 7.96212 26.7832 7.7822 26.6468 7.64773C26.5123 7.51326 26.3362 7.44602 26.1184 7.44602C25.9707 7.44602 25.8362 7.4839 25.715 7.55966C25.5938 7.63352 25.4972 7.73864 25.4252 7.875C25.3532 8.00947 25.3173 8.16667 25.3173 8.34659V11H24.2888ZM31.4685 11V6.63636H32.4969V11H31.4685ZM31.9856 6.01705C31.8227 6.01705 31.6825 5.96307 31.5651 5.85511C31.4477 5.74526 31.389 5.61364 31.389 5.46023C31.389 5.30492 31.4477 5.1733 31.5651 5.06534C31.6825 4.95549 31.8227 4.90057 31.9856 4.90057C32.1504 4.90057 32.2905 4.95549 32.406 5.06534C32.5235 5.1733 32.5822 5.30492 32.5822 5.46023C32.5822 5.61364 32.5235 5.74526 32.406 5.85511C32.2905 5.96307 32.1504 6.01705 31.9856 6.01705ZM36.3357 9.16477V6.63636H37.3641V11H36.367V10.2244H36.3215C36.223 10.4687 36.0611 10.6686 35.8357 10.8239C35.6122 10.9792 35.3367 11.0568 35.009 11.0568C34.723 11.0568 34.4702 10.9934 34.2505 10.8665C34.0327 10.7377 33.8622 10.5511 33.7391 10.3068C33.616 10.0606 33.5545 9.76326 33.5545 9.41477V6.63636H34.5829V9.25568C34.5829 9.5322 34.6586 9.75189 34.8102 9.91477C34.9617 10.0777 35.1605 10.1591 35.4067 10.1591C35.5583 10.1591 35.705 10.1222 35.8471 10.0483C35.9891 9.97443 36.1056 9.86458 36.1965 9.71875C36.2893 9.57102 36.3357 9.38636 36.3357 9.16477ZM38.4217 11V6.63636H39.4046V7.37784H39.4557C39.5467 7.12784 39.6972 6.93277 39.9075 6.79261C40.1177 6.65057 40.3686 6.57955 40.6603 6.57955C40.9557 6.57955 41.2048 6.65152 41.4075 6.79545C41.612 6.9375 41.7559 7.13163 41.8393 7.37784H41.8847C41.9813 7.13542 42.1442 6.94223 42.3734 6.7983C42.6044 6.65246 42.8781 6.57955 43.1944 6.57955C43.5959 6.57955 43.9236 6.70644 44.1773 6.96023C44.4311 7.21402 44.558 7.58428 44.558 8.07102V11H43.5268V8.23011C43.5268 7.95928 43.4548 7.76136 43.3109 7.63636C43.1669 7.50947 42.9908 7.44602 42.7825 7.44602C42.5343 7.44602 42.3402 7.52367 42.2001 7.67898C42.0618 7.83239 41.9927 8.0322 41.9927 8.27841V11H40.9842V8.1875C40.9842 7.96212 40.916 7.7822 40.7796 7.64773C40.6451 7.51326 40.469 7.44602 40.2512 7.44602C40.1035 7.44602 39.969 7.4839 39.8478 7.55966C39.7266 7.63352 39.63 7.73864 39.558 7.875C39.4861 8.00947 39.4501 8.16667 39.4501 8.34659V11H38.4217ZM47.3173 10.6562V6.72443H48.2093V10.6562H47.3173ZM45.7974 9.13636V8.24432H49.7292V9.13636H45.7974Z" fill="#000E2B"/>
<defs>
<linearGradient id="paint0_linear_7608_148875" x1="30.6667" y1="0" x2="30.6667" y2="16" gradientUnits="userSpaceOnUse">
<stop stop-color="#FFA800"/>
<stop offset="1" stop-color="#FF4D00"/>
</linearGradient>
</defs>
</svg>
