<svg width="40" height="40" viewBox="0 0 40 40" fill="none" xmlns="http://www.w3.org/2000/svg">
<path d="M34.9922 30H5.00781C2.9375 30 1.25 28.3125 1.25 26.2422V10.0078C1.25 7.9375 2.9375 6.25 5.00781 6.25H34.9844C37.0547 6.25 38.7422 7.9375 38.7422 10.0078V26.2344C38.75 28.3125 37.0625 30 34.9922 30ZM5.00781 8.75C4.3125 8.75 3.75 9.3125 3.75 10.0078V26.2344C3.75 26.9297 4.3125 27.4922 5.00781 27.4922H34.9844C35.6797 27.4922 36.2422 26.9297 36.2422 26.2344V10.0078C36.2422 9.3125 35.6797 8.75 34.9844 8.75H5.00781Z" fill="white" fill-opacity="0.38"/>
<path d="M30 33.75H10C9.3125 33.75 8.75 33.1875 8.75 32.5C8.75 31.8125 9.3125 31.25 10 31.25H30C30.6875 31.25 31.25 31.8125 31.25 32.5C31.25 33.1875 30.6875 33.75 30 33.75Z" fill="white" fill-opacity="0.38"/>
</svg>
