<svg width="72" height="72" viewBox="0 0 72 72" fill="none" xmlns="http://www.w3.org/2000/svg">
<rect width="72" height="72" fill="#EC1C24"/>
<rect width="71.9499" height="71.9499" fill="#EC1C24"/>
<path d="M0 0V31.3141L31.3141 0H0Z" fill="#129648"/>
<path d="M72 72V40.6859L40.6859 72H72Z" fill="#0E61AD"/>
<path d="M53.1348 43.3774C53.154 43.412 53.1702 43.4482 53.1902 43.4837C53.2187 43.533 53.248 43.583 53.278 43.6316C53.2973 43.6662 53.3173 43.7001 53.3389 43.734C53.3705 43.7848 53.4036 43.8349 53.4382 43.8858C53.4583 43.9166 53.4783 43.9481 53.4999 43.979C53.5384 44.0352 53.5807 44.0891 53.6208 44.1446C53.6393 44.1684 53.6578 44.1931 53.6762 44.2177C53.7371 44.2963 53.7995 44.3741 53.8657 44.4503C54.1176 44.743 54.2432 44.8701 54.2801 44.8825C55.6381 46.1657 57.5075 46.6918 59.2852 46.4114C59.3407 46.4029 59.3938 46.3929 59.4493 46.3829C60.3998 46.2058 61.3187 45.7975 62.1128 45.1474C63.4962 44.0121 64.2056 42.3876 64.1995 40.7524C64.1995 40.7631 64.1995 40.7747 64.1995 40.787V20.3452H59.4493V40.7762H59.4478C59.4478 41.2153 59.1728 41.6274 58.7253 41.7868C58.1537 41.9902 57.519 41.7036 57.3111 41.146C57.3111 41.1436 57.3095 41.1413 57.308 41.139H57.3072L55.3369 35.882L54.4118 33.4141L50.9164 24.0941H50.9149C50.901 24.054 50.8848 24.0163 50.8694 23.977C50.8533 23.9385 50.8386 23.8992 50.8225 23.8615C50.8017 23.8106 50.7786 23.7621 50.7562 23.712C50.7377 23.6758 50.7215 23.6388 50.7038 23.6019C50.68 23.5518 50.653 23.5025 50.6268 23.4524C50.6083 23.417 50.5906 23.3824 50.5706 23.3461C50.5428 23.2961 50.5128 23.246 50.4835 23.1967C50.4635 23.1628 50.4435 23.1289 50.4235 23.095C50.3911 23.0442 50.358 22.9949 50.3241 22.9441C50.3033 22.9125 50.2833 22.8817 50.2617 22.8501C50.2232 22.7946 50.1824 22.74 50.1415 22.6853C50.1231 22.6606 50.1053 22.6352 50.0876 22.6121C50.026 22.5328 49.9621 22.455 49.8981 22.3795C49.6455 22.086 49.52 21.9589 49.4845 21.9458C48.1258 20.6641 46.2548 20.138 44.4786 20.4176C44.4247 20.4261 44.37 20.4361 44.3146 20.4461C43.3641 20.6225 42.4452 21.0315 41.6518 21.6816C40.2684 22.8162 39.5598 24.4422 39.566 26.0775C39.566 26.0651 39.5652 26.0536 39.5652 26.042V46.4846H44.3153V26.0528H44.3169C44.3169 25.6138 44.5919 25.2017 45.0394 25.043C45.6109 24.8397 46.2441 25.1254 46.4528 25.6831C46.4536 25.6854 46.4536 25.6885 46.4543 25.6908H46.4559L48.4262 30.9478L50.5852 36.6923L53.1363 43.3774" fill="white"/>
<path d="M23.5508 28.6802C23.5508 29.3365 23.0193 29.8679 22.3623 29.8679H19.9868C19.3306 29.8679 18.7983 29.3357 18.7983 28.6802V19.1753C18.7983 18.519 19.3306 17.9875 19.9868 17.9875H22.3623C23.0186 17.9875 23.5508 18.5198 23.5508 19.1753V28.6802Z" fill="white"/>
<path d="M25.9262 21.3088V26.6644C28.0614 28.1633 29.4578 30.642 29.4578 33.448C29.4578 38.0226 25.7483 41.7314 21.173 41.7314C16.5977 41.7314 12.8889 38.0218 12.8889 33.448C12.8889 30.642 14.2861 28.1633 16.4213 26.6644V21.3088C11.5733 23.2083 8.13721 27.9261 8.13721 33.448C8.13721 40.6476 13.9734 46.4846 21.173 46.4846C28.3726 46.4846 34.2103 40.6476 34.2103 33.448C34.2103 27.9261 30.775 23.2083 25.9262 21.3088Z" fill="white"/>
<path d="M64.2409 55.9202C64.2409 56.4371 63.7225 56.8561 63.0824 56.8561H60.3195V59.6228C60.3195 60.2629 59.9005 60.7828 59.3837 60.7828H57.512C56.9951 60.7828 56.5769 60.2637 56.5769 59.6228V56.8646H53.8093C53.1693 56.8646 52.6509 56.4455 52.6509 55.9272V54.0539C52.6509 53.5363 53.17 53.1173 53.8093 53.1173H56.5722V50.3513C56.5722 49.7112 56.9913 49.1913 57.5073 49.1913H59.3798C59.8959 49.1913 60.3141 49.7112 60.3141 50.3513V53.1103H63.0824C63.7233 53.1103 64.2409 53.5301 64.2409 54.047V55.921V55.9202Z" fill="white"/>
</svg>
