<svg width="169" height="169" viewBox="0 0 169 169" fill="none" xmlns="http://www.w3.org/2000/svg">
<rect width="168" height="168" fill="#EC1C24"/>
<path d="M0 0V73.117L73.117 0H0Z" fill="#129648"/>
<path d="M168.117 168.117V95L95 168.117H168.117Z" fill="#0E61AD"/>
<path d="M124.067 101.284C124.112 101.365 124.15 101.45 124.197 101.533C124.263 101.648 124.332 101.765 124.402 101.878C124.447 101.959 124.494 102.038 124.544 102.117C124.618 102.236 124.695 102.353 124.776 102.471C124.823 102.543 124.87 102.617 124.92 102.689C125.01 102.82 125.109 102.946 125.202 103.076C125.245 103.131 125.289 103.189 125.332 103.247C125.474 103.43 125.62 103.612 125.774 103.79C126.362 104.473 126.656 104.77 126.742 104.799C129.913 107.795 134.278 109.023 138.429 108.369C138.558 108.349 138.682 108.326 138.812 108.302C141.031 107.889 143.177 106.935 145.031 105.417C148.261 102.766 149.917 98.9733 149.903 95.1551C149.903 95.1802 149.903 95.2072 149.903 95.236V47.5053H138.812V95.2108H138.808C138.808 96.236 138.166 97.1982 137.121 97.5705C135.787 98.0453 134.305 97.3762 133.819 96.0741C133.819 96.0687 133.815 96.0633 133.812 96.0579H133.81L129.209 83.7831L127.049 78.0206L118.888 56.2586H118.884C118.852 56.1651 118.814 56.077 118.778 55.9853C118.74 55.8953 118.706 55.8036 118.668 55.7155C118.62 55.5968 118.566 55.4835 118.514 55.3666C118.47 55.282 118.433 55.1957 118.391 55.1094C118.336 54.9925 118.273 54.8774 118.211 54.7605C118.168 54.6777 118.127 54.5968 118.08 54.5123C118.015 54.3954 117.945 54.2785 117.877 54.1634C117.83 54.0842 117.783 54.0051 117.737 53.926C117.661 53.8073 117.584 53.6921 117.505 53.5734C117.456 53.4997 117.409 53.4278 117.359 53.354C117.269 53.2245 117.174 53.0968 117.078 52.9691C117.035 52.9116 116.994 52.8522 116.953 52.7983C116.809 52.613 116.659 52.4314 116.51 52.2551C115.92 51.5699 115.627 51.2731 115.544 51.2426C112.372 48.2499 108.003 47.0215 103.856 47.6743C103.73 47.6941 103.602 47.7175 103.473 47.7409C101.253 48.1527 99.1077 49.1077 97.2552 50.6257C94.0251 53.2749 92.3705 57.0716 92.3849 60.8898C92.3849 60.861 92.3831 60.834 92.3831 60.8071V108.54H103.474V60.8322H103.478C103.478 59.8071 104.12 58.8449 105.165 58.4744C106.5 57.9996 107.978 58.6668 108.465 59.969C108.467 59.9744 108.467 59.9815 108.469 59.9869H108.473L113.073 72.2618L118.114 85.6751L124.071 101.284" fill="white"/>
<path d="M54.99 66.9669C54.99 68.4993 53.749 69.7402 52.2149 69.7402H46.6683C45.136 69.7402 43.8932 68.4975 43.8932 66.9669V44.7733C43.8932 43.241 45.136 42 46.6683 42H52.2149C53.7472 42 54.99 43.2428 54.99 44.7733V66.9669Z" fill="white"/>
<path d="M60.5366 49.7551V62.2602C65.5221 65.7601 68.7828 71.5477 68.7828 78.0997C68.7828 88.7811 60.1212 97.4409 49.438 97.4409C38.7549 97.4409 30.095 88.7793 30.095 78.0997C30.095 71.5477 33.3575 65.7601 38.343 62.2602V49.7551C27.0232 54.1903 19 65.2061 19 78.0997C19 94.9104 32.6273 108.54 49.438 108.54C66.2487 108.54 79.8797 94.9104 79.8797 78.0997C79.8797 65.2061 71.8583 54.1903 60.5366 49.7551Z" fill="white"/>
<path d="M150 130.571C150 131.778 148.789 132.756 147.295 132.756H140.844V139.217C140.844 140.711 139.865 141.925 138.658 141.925H134.288C133.081 141.925 132.105 140.713 132.105 139.217V132.776H125.643C124.148 132.776 122.938 131.798 122.938 130.587V126.214C122.938 125.005 124.15 124.027 125.643 124.027H132.094V117.568C132.094 116.073 133.072 114.859 134.277 114.859H138.649C139.854 114.859 140.831 116.073 140.831 117.568V124.01H147.295C148.791 124.01 150 124.991 150 126.197V130.573V130.571Z" fill="white"/>
</svg>
