<svg width="32" height="32" viewBox="0 0 32 32" fill="none" xmlns="http://www.w3.org/2000/svg">
<rect width="32" height="32" fill="#EC1C24"/>
<rect width="32" height="32" fill="#EC1C24"/>
<rect width="32" height="32" fill="#EC1C24"/>
<rect width="31.9777" height="31.9777" fill="#EC1C24"/>
<path d="M0 0V13.9174L13.9174 0H0Z" fill="#129648"/>
<path d="M32 32V18.0826L18.0826 32H32Z" fill="#0E61AD"/>
<path d="M23.6155 19.2789C23.6241 19.2943 23.6313 19.3104 23.6402 19.3261C23.6528 19.3481 23.6658 19.3703 23.6792 19.3919C23.6877 19.4073 23.6966 19.4223 23.7062 19.4374C23.7203 19.46 23.735 19.4823 23.7504 19.5048C23.7593 19.5185 23.7682 19.5326 23.7778 19.5463C23.7949 19.5713 23.8137 19.5952 23.8315 19.6199C23.8397 19.6305 23.848 19.6414 23.8562 19.6524C23.8832 19.6873 23.911 19.7219 23.9404 19.7558C24.0523 19.8859 24.1081 19.9424 24.1246 19.9478C24.7281 20.5182 25.559 20.752 26.3491 20.6274C26.3737 20.6236 26.3973 20.6191 26.422 20.6147C26.8444 20.536 27.2528 20.3545 27.6058 20.0656C28.2206 19.561 28.5359 18.839 28.5332 18.1122C28.5332 18.117 28.5332 18.1222 28.5332 18.1276V9.0424H26.422V18.1228H26.4213C26.4213 18.318 26.2991 18.5011 26.1002 18.572C25.8462 18.6624 25.5641 18.535 25.4717 18.2872C25.4717 18.2861 25.471 18.2851 25.4703 18.2841H25.4699L24.5943 15.9476L24.1831 14.8508L22.6296 10.7085H22.6289C22.6227 10.6907 22.6156 10.674 22.6087 10.6565C22.6015 10.6394 22.595 10.6219 22.5878 10.6052C22.5786 10.5826 22.5683 10.561 22.5584 10.5387C22.5502 10.5227 22.543 10.5062 22.5351 10.4898C22.5245 10.4675 22.5125 10.4456 22.5009 10.4234C22.4927 10.4076 22.4848 10.3922 22.4759 10.3761C22.4636 10.3539 22.4502 10.3316 22.4372 10.3097C22.4283 10.2947 22.4194 10.2796 22.4105 10.2645C22.3961 10.2419 22.3814 10.22 22.3663 10.1974C22.3571 10.1834 22.3482 10.1697 22.3386 10.1557C22.3215 10.131 22.3033 10.1067 22.2852 10.0824C22.277 10.0715 22.2691 10.0602 22.2612 10.0499C22.2338 10.0146 22.2054 9.98005 22.177 9.9465C22.0647 9.81607 22.0089 9.75959 21.9932 9.75377C21.3893 9.18412 20.5578 8.95031 19.7684 9.07458C19.7444 9.07834 19.7201 9.08279 19.6954 9.08724C19.273 9.16564 18.8646 9.34742 18.512 9.63635C17.8971 10.1406 17.5822 10.8633 17.5849 11.5901C17.5849 11.5846 17.5846 11.5794 17.5846 11.5743V20.6599H19.6958V11.5791H19.6965C19.6965 11.384 19.8187 11.2008 20.0176 11.1303C20.2716 11.0399 20.553 11.1669 20.6458 11.4148C20.6461 11.4158 20.6461 11.4172 20.6464 11.4182H20.6471L21.5228 13.7546L22.4824 16.3078L23.6162 19.2789" fill="white"/>
<path d="M10.4671 12.7468C10.4671 13.0385 10.2309 13.2747 9.93884 13.2747H8.88308C8.59141 13.2747 8.35486 13.0381 8.35486 12.7468V8.52239C8.35486 8.23072 8.59141 7.99451 8.88308 7.99451H9.93884C10.2305 7.99451 10.4671 8.23106 10.4671 8.52239V12.7468Z" fill="white"/>
<path d="M11.5228 9.47058V11.8508C12.4718 12.517 13.0924 13.6187 13.0924 14.8658C13.0924 16.8989 11.4437 18.5473 9.41026 18.5473C7.37679 18.5473 5.72844 16.8986 5.72844 14.8658C5.72844 13.6187 6.34944 12.517 7.29839 11.8508V9.47058C5.14374 10.3148 3.61658 12.4116 3.61658 14.8658C3.61658 18.0656 6.21045 20.6598 9.41026 20.6598C12.6101 20.6598 15.2046 18.0656 15.2046 14.8658C15.2046 12.4116 13.6778 10.3148 11.5228 9.47058Z" fill="white"/>
<path d="M28.5516 24.8534C28.5516 25.0831 28.3212 25.2694 28.0368 25.2694H26.8088V26.499C26.8088 26.7835 26.6226 27.0146 26.3929 27.0146H25.561C25.3313 27.0146 25.1454 26.7839 25.1454 26.499V25.2731H23.9154C23.6309 25.2731 23.4005 25.0869 23.4005 24.8565V24.024C23.4005 23.7939 23.6312 23.6077 23.9154 23.6077H25.1433V22.3783C25.1433 22.0939 25.3296 21.8628 25.5589 21.8628H26.3912C26.6205 21.8628 26.8064 22.0939 26.8064 22.3783V23.6046H28.0368C28.3216 23.6046 28.5516 23.7912 28.5516 24.0209V24.8538V24.8534Z" fill="white"/>
</svg>
