<svg width="16" height="16" viewBox="0 0 16 16" fill="none" xmlns="http://www.w3.org/2000/svg">
<rect width="16" height="16" fill="#EC1C24"/>
<rect width="16" height="16" fill="#EC1C24"/>
<rect width="16" height="16" fill="#EC1C24"/>
<rect width="16" height="16" fill="#EC1C24"/>
<rect width="15.9889" height="15.9889" fill="#EC1C24"/>
<path d="M0 0V6.95868L6.95868 0H0Z" fill="#129648"/>
<path d="M15.9999 15.9999V9.04126L9.04126 15.9999H15.9999Z" fill="#0E61AD"/>
<path d="M11.8077 9.63939C11.812 9.64709 11.8156 9.65514 11.82 9.66301C11.8264 9.67397 11.8329 9.68509 11.8395 9.69588C11.8438 9.70358 11.8483 9.71111 11.8531 9.71864C11.8601 9.72994 11.8674 9.74107 11.8751 9.75236C11.8796 9.75921 11.884 9.76623 11.8888 9.77307C11.8974 9.78557 11.9068 9.79755 11.9157 9.80988C11.9198 9.81518 11.9239 9.82066 11.928 9.82614C11.9415 9.8436 11.9554 9.86088 11.9701 9.87783C12.0261 9.94287 12.054 9.97112 12.0622 9.97385C12.364 10.259 12.7794 10.3759 13.1745 10.3136C13.1868 10.3117 13.1986 10.3095 13.2109 10.3073C13.4221 10.2679 13.6264 10.1772 13.8028 10.0327C14.1102 9.78043 14.2679 9.41944 14.2665 9.05605C14.2665 9.05845 14.2665 9.06102 14.2665 9.06376V4.52114H13.2109V9.06136H13.2106C13.2106 9.15892 13.1495 9.2505 13.05 9.28593C12.923 9.33112 12.782 9.26745 12.7358 9.14352C12.7358 9.14301 12.7354 9.14249 12.7351 9.14198H12.7349L12.2971 7.97376L12.0915 7.42534L11.3147 5.35421H11.3144C11.3113 5.34531 11.3077 5.33692 11.3043 5.32819C11.3007 5.31963 11.2974 5.3109 11.2939 5.30252C11.2892 5.29122 11.2841 5.28044 11.2791 5.26931C11.275 5.26127 11.2714 5.25305 11.2675 5.24483C11.2622 5.23371 11.2562 5.22275 11.2504 5.21163C11.2463 5.20375 11.2423 5.19605 11.2379 5.18801C11.2317 5.17688 11.225 5.16575 11.2185 5.1548C11.2141 5.14727 11.2096 5.13974 11.2052 5.13221C11.198 5.12091 11.1906 5.10995 11.1831 5.09866C11.1785 5.09164 11.174 5.08479 11.1692 5.07777C11.1607 5.06545 11.1516 5.0533 11.1425 5.04114C11.1384 5.03567 11.1345 5.03002 11.1306 5.02488C11.1169 5.00725 11.1027 4.98997 11.0885 4.97319C11.0323 4.90798 11.0044 4.87973 10.9965 4.87682C10.6946 4.592 10.2788 4.47509 9.88412 4.53723C9.87213 4.53911 9.85998 4.54133 9.84766 4.54356C9.63644 4.58276 9.43223 4.67365 9.25593 4.81811C8.94851 5.07024 8.79104 5.43158 8.79241 5.79497C8.79241 5.79223 8.79224 5.78966 8.79224 5.78709V10.3299H9.84783V5.78949H9.84817C9.84817 5.69192 9.90928 5.60035 10.0087 5.56509C10.1357 5.5199 10.2764 5.5834 10.3228 5.70733C10.323 5.70784 10.323 5.70853 10.3232 5.70904H10.3235L10.7613 6.87726L11.2411 8.15383L11.808 9.63939" fill="white"/>
<path d="M5.23359 6.37346C5.23359 6.5193 5.11549 6.6374 4.96948 6.6374H4.4416C4.29577 6.6374 4.17749 6.51913 4.17749 6.37346V4.26125C4.17749 4.11542 4.29577 3.99731 4.4416 3.99731H4.96948C5.11532 3.99731 5.23359 4.11559 5.23359 4.26125V6.37346Z" fill="white"/>
<path d="M5.76147 4.73535V5.92548C6.23594 6.25857 6.54627 6.80939 6.54627 7.43295C6.54627 8.44952 5.72193 9.27369 4.70519 9.27369C3.68845 9.27369 2.86428 8.44935 2.86428 7.43295C2.86428 6.80939 3.17478 6.25857 3.64926 5.92548V4.73535C2.57193 5.15745 1.80835 6.20585 1.80835 7.43295C1.80835 9.03286 3.10529 10.33 4.70519 10.33C6.30509 10.33 7.60237 9.03286 7.60237 7.43295C7.60237 6.20585 6.83897 5.15745 5.76147 4.73535Z" fill="white"/>
<path d="M14.2758 12.4267C14.2758 12.5416 14.1606 12.6347 14.0183 12.6347H13.4043V13.2495C13.4043 13.3918 13.3112 13.5073 13.1964 13.5073H12.7804C12.6656 13.5073 12.5726 13.3919 12.5726 13.2495V12.6366H11.9576C11.8154 12.6366 11.7002 12.5435 11.7002 12.4283V12.012C11.7002 11.897 11.8156 11.8038 11.9576 11.8038H12.5716V11.1892C12.5716 11.0469 12.6647 10.9314 12.7794 10.9314H13.1955C13.3102 10.9314 13.4031 11.0469 13.4031 11.1892V11.8023H14.0183C14.1607 11.8023 14.2758 11.8956 14.2758 12.0104V12.4269V12.4267Z" fill="white"/>
</svg>
