<svg width="48" height="48" viewBox="0 0 48 48" fill="none" xmlns="http://www.w3.org/2000/svg">
<rect width="48" height="48" fill="#EC1C24"/>
<rect width="48" height="48" fill="#EC1C24"/>
<rect width="47.9666" height="47.9666" fill="#EC1C24"/>
<path d="M0 0V20.876L20.876 0H0Z" fill="#129648"/>
<path d="M47.9999 47.9999V27.1239L27.1239 47.9999H47.9999Z" fill="#0E61AD"/>
<path d="M35.4232 28.9183C35.4361 28.9414 35.4468 28.9655 35.4602 28.9892C35.4792 29.022 35.4987 29.0554 35.5187 29.0878C35.5316 29.1109 35.5449 29.1335 35.5593 29.156C35.5803 29.1899 35.6024 29.2233 35.6255 29.2572C35.6389 29.2777 35.6522 29.2988 35.6666 29.3193C35.6923 29.3568 35.7205 29.3928 35.7472 29.4297C35.7596 29.4457 35.7719 29.4621 35.7842 29.4785C35.8248 29.5309 35.8664 29.5828 35.9105 29.6336C36.0784 29.8287 36.1621 29.9135 36.1868 29.9217C37.0921 30.7772 38.3384 31.1279 39.5235 30.941C39.5605 30.9353 39.5959 30.9287 39.6329 30.922C40.2666 30.8039 40.8792 30.5317 41.4086 30.0983C42.3309 29.3414 42.8038 28.2584 42.7997 27.1683C42.7997 27.1755 42.7997 27.1832 42.7997 27.1914V13.5635H39.6329V27.1842H39.6319C39.6319 27.4769 39.4486 27.7516 39.1502 27.8579C38.7692 27.9935 38.3461 27.8025 38.2074 27.4307C38.2074 27.4291 38.2064 27.4276 38.2054 27.4261H38.2049L36.8913 23.9214L36.2746 22.2761L33.9443 16.0628H33.9433C33.9341 16.0361 33.9233 16.0109 33.913 15.9847C33.9022 15.959 33.8925 15.9328 33.8817 15.9077C33.8678 15.8738 33.8524 15.8414 33.8375 15.8081C33.8252 15.7839 33.8144 15.7593 33.8026 15.7346C33.7867 15.7012 33.7687 15.6684 33.7512 15.635C33.7389 15.6114 33.7271 15.5883 33.7138 15.5641C33.6953 15.5308 33.6752 15.4974 33.6557 15.4645C33.6424 15.4419 33.629 15.4193 33.6157 15.3967C33.5941 15.3628 33.572 15.33 33.5494 15.2961C33.5356 15.275 33.5222 15.2545 33.5078 15.2334C33.4822 15.1965 33.455 15.16 33.4277 15.1236C33.4154 15.1071 33.4036 15.0902 33.3918 15.0748C33.3507 15.0219 33.3081 14.97 33.2655 14.9197C33.097 14.724 33.0133 14.6393 32.9897 14.6306C32.0839 13.7761 30.8366 13.4254 29.6525 13.6118C29.6165 13.6175 29.5801 13.6241 29.5431 13.6308C28.9094 13.7484 28.2968 14.0211 27.7679 14.4545C26.8457 15.2109 26.3732 16.2949 26.3773 17.385C26.3773 17.3768 26.3768 17.3691 26.3768 17.3614V30.9898H29.5436V17.3686H29.5446C29.5446 17.0759 29.728 16.8012 30.0263 16.6954C30.4073 16.5598 30.8294 16.7503 30.9686 17.1221C30.9691 17.1236 30.9691 17.1257 30.9696 17.1272H30.9706L32.2842 20.6319L33.7235 24.4616L35.4242 28.9183" fill="white"/>
<path d="M15.7005 19.1201C15.7005 19.5577 15.3462 19.912 14.9082 19.912H13.3246C12.8871 19.912 12.5322 19.5571 12.5322 19.1201V12.7835C12.5322 12.346 12.8871 11.9917 13.3246 11.9917H14.9082C15.3457 11.9917 15.7005 12.3465 15.7005 12.7835V19.1201Z" fill="white"/>
<path d="M17.2842 14.2059V17.7763C18.7076 18.7756 19.6386 20.428 19.6386 22.2987C19.6386 25.3484 17.1655 27.8209 14.1153 27.8209C11.0651 27.8209 8.5926 25.3479 8.5926 22.2987C8.5926 20.428 9.5241 18.7756 10.9475 17.7763V14.2059C7.71554 15.4722 5.4248 18.6174 5.4248 22.2987C5.4248 27.0984 9.31562 30.9898 14.1153 30.9898C18.915 30.9898 22.8069 27.0984 22.8069 22.2987C22.8069 18.6174 20.5167 15.4722 17.2842 14.2059Z" fill="white"/>
<path d="M42.8273 37.2801C42.8273 37.6247 42.4817 37.9041 42.055 37.9041H40.213V39.7486C40.213 40.1753 39.9337 40.5219 39.5891 40.5219H38.3413C37.9967 40.5219 37.7179 40.1758 37.7179 39.7486V37.9097H35.8729C35.4462 37.9097 35.1006 37.6304 35.1006 37.2848V36.0359C35.1006 35.6909 35.4467 35.4115 35.8729 35.4115H37.7148V33.5675C37.7148 33.1408 37.9942 32.7942 38.3382 32.7942H39.5865C39.9306 32.7942 40.2094 33.1408 40.2094 33.5675V35.4069H42.055C42.4822 35.4069 42.8273 35.6867 42.8273 36.0313V37.2807V37.2801Z" fill="white"/>
</svg>
