<svg width="96" height="96" viewBox="0 0 96 96" fill="none" xmlns="http://www.w3.org/2000/svg">
<rect width="96" height="96" fill="#EC1C24"/>
<rect width="96" height="96" fill="#EC1C24"/>
<rect width="95.9331" height="95.9331" fill="#EC1C24"/>
<path d="M0 0V41.7521L41.7521 0H0Z" fill="#129648"/>
<path d="M96 96V54.2479L54.2479 96H96Z" fill="#0E61AD"/>
<path d="M70.8463 57.8365C70.872 57.8827 70.8935 57.931 70.9202 57.9782C70.9582 58.0439 70.9973 58.1107 71.0373 58.1754C71.063 58.2216 71.0897 58.2668 71.1185 58.312C71.1606 58.3798 71.2047 58.4465 71.2509 58.5143C71.2776 58.5554 71.3043 58.5975 71.3331 58.6386C71.3845 58.7135 71.4409 58.7854 71.4943 58.8594C71.519 58.8912 71.5436 58.9241 71.5683 58.9569C71.6494 59.0617 71.7326 59.1654 71.8209 59.2671C72.1568 59.6574 72.3242 59.8268 72.3735 59.8432C74.1841 61.5542 76.6766 62.2557 79.0469 61.8819C79.1209 61.8706 79.1918 61.8572 79.2657 61.8438C80.533 61.6076 81.7582 61.0633 82.8171 60.1965C84.6616 58.6827 85.6075 56.5168 85.5992 54.3364C85.5992 54.3508 85.5992 54.3662 85.5992 54.3827V27.1269H79.2657V54.3683H79.2636C79.2636 54.9537 78.897 55.5031 78.3003 55.7157C77.5383 55.9868 76.692 55.6048 76.4147 54.8612C76.4147 54.8582 76.4127 54.8551 76.4106 54.852H76.4096L73.7825 47.8427L72.5491 44.5522L67.8885 32.1254H67.8865C67.868 32.072 67.8464 32.0217 67.8259 31.9693C67.8043 31.9179 67.7848 31.8655 67.7632 31.8152C67.7355 31.7474 67.7047 31.6827 67.6749 31.616C67.6503 31.5677 67.6287 31.5184 67.6051 31.4691C67.5732 31.4024 67.5373 31.3366 67.5024 31.2699C67.4777 31.2226 67.4541 31.1764 67.4274 31.1282C67.3904 31.0614 67.3504 30.9946 67.3113 30.9289C67.2846 30.8837 67.2579 30.8385 67.2312 30.7934C67.1881 30.7256 67.1439 30.6598 67.0988 30.5921C67.071 30.55 67.0443 30.5089 67.0156 30.4668C66.9642 30.3928 66.9098 30.3199 66.8554 30.247C66.8307 30.2141 66.8071 30.1802 66.7835 30.1494C66.7013 30.0436 66.6161 29.9399 66.5308 29.8393C66.194 29.448 66.0266 29.2785 65.9793 29.2611C64.1677 27.5521 61.6731 26.8507 59.3048 27.2235C59.2329 27.2348 59.16 27.2481 59.0861 27.2615C57.8187 27.4967 56.5935 28.042 55.5357 28.9088C53.6912 30.4216 52.7464 32.5896 52.7546 34.7699C52.7546 34.7535 52.7535 34.7381 52.7535 34.7227V61.9794H59.0871V34.7371H59.0891C59.0891 34.1517 59.4558 33.6022 60.0525 33.3907C60.8145 33.1195 61.6587 33.5005 61.937 34.2441C61.9381 34.2472 61.9381 34.2513 61.9391 34.2544H61.9411L64.5682 41.2637L67.4469 48.9231L70.8484 57.8365" fill="white"/>
<path d="M31.4011 38.2403C31.4011 39.1153 30.6924 39.8239 29.8164 39.8239H26.6491C25.7741 39.8239 25.0645 39.1143 25.0645 38.2403V25.567C25.0645 24.692 25.7741 23.9834 26.6491 23.9834H29.8164C30.6914 23.9834 31.4011 24.6931 31.4011 25.567V38.2403Z" fill="white"/>
<path d="M34.5683 28.4117V35.5525C37.4152 37.5511 39.2771 40.856 39.2771 44.5974C39.2771 50.6967 34.3311 55.6418 28.2307 55.6418C22.1302 55.6418 17.1852 50.6957 17.1852 44.5974C17.1852 40.856 19.0482 37.5511 21.8951 35.5525V28.4117C15.4311 30.9443 10.8496 37.2347 10.8496 44.5974C10.8496 54.1968 18.6312 61.9794 28.2307 61.9794C37.8301 61.9794 45.6138 54.1968 45.6138 44.5974C45.6138 37.2347 41.0333 30.9443 34.5683 28.4117Z" fill="white"/>
<path d="M85.6545 74.5603C85.6545 75.2494 84.9634 75.8081 84.1099 75.8081H80.426V79.4971C80.426 80.3506 79.8674 81.0438 79.1782 81.0438H76.6826C75.9935 81.0438 75.4358 80.3516 75.4358 79.4971V75.8194H71.7458C70.8924 75.8194 70.2012 75.2607 70.2012 74.5695V72.0719C70.2012 71.3817 70.8934 70.823 71.7458 70.823H75.4297V67.135C75.4297 66.2816 75.9884 65.5884 76.6764 65.5884H79.1731C79.8612 65.5884 80.4189 66.2816 80.4189 67.135V70.8138H84.1099C84.9644 70.8138 85.6545 71.3735 85.6545 72.0626V74.5613V74.5603Z" fill="white"/>
</svg>
